<mxfile host="65bd71144e">
    <diagram id="Bwpa_esMAEdjsBve6f19" name="Page-1">
        <mxGraphModel dx="1206" dy="466" grid="1" gridSize="10" guides="1" tooltips="1" connect="1" arrows="1" fold="1" page="1" pageScale="1" pageWidth="1100" pageHeight="850" math="0" shadow="0">
            <root>
                <mxCell id="0"/>
                <mxCell id="1" parent="0"/>
                <mxCell id="_0PlHYa_JAHvjLPgEeFG-404" value="!Browser" style="swimlane;startSize=40;" parent="1" vertex="1">
                    <mxGeometry x="2160" y="1160" width="560" height="400" as="geometry"/>
                </mxCell>
                <mxCell id="_0PlHYa_JAHvjLPgEeFG-405" value="" style="rounded=0;whiteSpace=wrap;html=1;gradientColor=#ffffff;glass=0;shadow=0;" parent="_0PlHYa_JAHvjLPgEeFG-404" vertex="1">
                    <mxGeometry y="40" width="560" height="320" as="geometry"/>
                </mxCell>
                <mxCell id="_0PlHYa_JAHvjLPgEeFG-406" value="&lt;h1&gt;&lt;font style=&quot;font-size: 22px&quot;&gt;TITLE&lt;/font&gt;&lt;/h1&gt;" style="rounded=0;whiteSpace=wrap;html=1;shadow=0;glass=0;fontColor=#CCCCCC;fillColor=none;gradientColor=#ffffff;sketch=0;dashed=1;" parent="_0PlHYa_JAHvjLPgEeFG-404" vertex="1">
                    <mxGeometry x="30" y="60" width="70" height="30" as="geometry"/>
                </mxCell>
                <mxCell id="_0PlHYa_JAHvjLPgEeFG-407" value="" style="group" parent="_0PlHYa_JAHvjLPgEeFG-404" vertex="1" connectable="0">
                    <mxGeometry x="140" y="60" width="300" height="30" as="geometry"/>
                </mxCell>
                <mxCell id="_0PlHYa_JAHvjLPgEeFG-408" value="" style="rounded=1;whiteSpace=wrap;html=1;shadow=1;" parent="_0PlHYa_JAHvjLPgEeFG-407" vertex="1">
                    <mxGeometry width="300" height="30" as="geometry"/>
                </mxCell>
                <mxCell id="_0PlHYa_JAHvjLPgEeFG-409" value="...type in field to begin search" style="rounded=0;whiteSpace=wrap;html=1;align=right;" parent="_0PlHYa_JAHvjLPgEeFG-407" vertex="1">
                    <mxGeometry x="10" y="10" width="190" height="10" as="geometry"/>
                </mxCell>
                <mxCell id="_0PlHYa_JAHvjLPgEeFG-410" value="Discover" style="rounded=1;whiteSpace=wrap;html=1;" parent="_0PlHYa_JAHvjLPgEeFG-407" vertex="1">
                    <mxGeometry x="210" y="10" width="70" height="10" as="geometry"/>
                </mxCell>
                <mxCell id="_0PlHYa_JAHvjLPgEeFG-456" value="Return//Expanded Image" style="rounded=0;whiteSpace=wrap;html=1;shadow=0;glass=0;sketch=0;fontSize=12;fontColor=#000000;strokeColor=default;fillColor=default;gradientColor=none;gradientDirection=north;" parent="_0PlHYa_JAHvjLPgEeFG-404" vertex="1">
                    <mxGeometry x="31" y="122" width="199" height="180" as="geometry"/>
                </mxCell>
                <mxCell id="_0PlHYa_JAHvjLPgEeFG-411" value="" style="rounded=0;whiteSpace=wrap;html=1;shadow=0;glass=0;dashed=1;sketch=0;fontColor=#CCCCCC;fillColor=#E6E6E6;gradientColor=#ffffff;gradientDirection=north;opacity=90;" parent="_0PlHYa_JAHvjLPgEeFG-404" vertex="1">
                    <mxGeometry y="330" width="560" height="70" as="geometry"/>
                </mxCell>
                <mxCell id="_0PlHYa_JAHvjLPgEeFG-412" value="Credits" style="rounded=0;whiteSpace=wrap;html=1;shadow=0;glass=0;dashed=1;sketch=0;fontColor=#CCCCCC;fillColor=none;gradientColor=#ffffff;gradientDirection=north;strokeColor=none;align=right;" parent="_0PlHYa_JAHvjLPgEeFG-404" vertex="1">
                    <mxGeometry x="50" y="370" width="500" height="20" as="geometry"/>
                </mxCell>
                <mxCell id="_0PlHYa_JAHvjLPgEeFG-458" value="" style="group" parent="_0PlHYa_JAHvjLPgEeFG-404" vertex="1" connectable="0">
                    <mxGeometry x="250" y="122" width="360" height="180" as="geometry"/>
                </mxCell>
                <mxCell id="_0PlHYa_JAHvjLPgEeFG-459" value="" style="rounded=0;whiteSpace=wrap;html=1;shadow=1;glass=0;sketch=0;fontSize=22;fontColor=#000000;strokeColor=default;fillColor=default;gradientColor=none;gradientDirection=north;dashed=1;" parent="_0PlHYa_JAHvjLPgEeFG-458" vertex="1">
                    <mxGeometry width="295" height="180" as="geometry"/>
                </mxCell>
                <mxCell id="_0PlHYa_JAHvjLPgEeFG-460" value="Return//TITLE" style="rounded=0;whiteSpace=wrap;html=1;shadow=1;glass=0;dashed=1;sketch=0;fontSize=22;fontColor=#000000;strokeColor=default;fillColor=default;gradientColor=none;gradientDirection=north;" parent="_0PlHYa_JAHvjLPgEeFG-458" vertex="1">
                    <mxGeometry x="5" y="10.588235294117647" width="280" height="31.764705882352942" as="geometry"/>
                </mxCell>
                <mxCell id="_0PlHYa_JAHvjLPgEeFG-461" value="&lt;div style=&quot;text-align: justify&quot;&gt;&lt;span style=&quot;font-size: 14px&quot;&gt;return //Description:&lt;/span&gt;&lt;/div&gt;&lt;font&gt;&lt;div style=&quot;font-size: 14px ; text-align: justify&quot;&gt;&lt;span&gt;if keyword appears in description replace with hyperlink that initialize new query&amp;nbsp;&lt;/span&gt;&lt;/div&gt;&lt;div style=&quot;font-size: 14px ; text-align: justify&quot;&gt;&lt;span&gt;return// copyright if present&lt;/span&gt;&lt;/div&gt;&lt;div style=&quot;font-size: 14px ; text-align: justify&quot;&gt;&lt;span&gt;return//more details of image&lt;/span&gt;&lt;/div&gt;&lt;div style=&quot;text-align: justify&quot;&gt;&lt;span style=&quot;font-size: 14px&quot;&gt;&lt;br&gt;&lt;/span&gt;&lt;/div&gt;&lt;/font&gt;" style="rounded=0;whiteSpace=wrap;html=1;shadow=1;glass=0;dashed=1;sketch=0;fontSize=22;fontColor=#000000;strokeColor=default;fillColor=default;gradientColor=none;gradientDirection=north;align=center;" parent="_0PlHYa_JAHvjLPgEeFG-458" vertex="1">
                    <mxGeometry x="12.5" y="63.529411764705884" width="270" height="95.29411764705883" as="geometry"/>
                </mxCell>
                <mxCell id="_0PlHYa_JAHvjLPgEeFG-464" value="" style="group" parent="_0PlHYa_JAHvjLPgEeFG-404" vertex="1" connectable="0">
                    <mxGeometry x="530" y="220" width="100" height="90" as="geometry"/>
                </mxCell>
                <mxCell id="_0PlHYa_JAHvjLPgEeFG-465" value="" style="html=1;shadow=0;dashed=0;align=center;verticalAlign=middle;shape=mxgraph.arrows2.arrow;dy=0.6;dx=40;notch=0;glass=0;sketch=0;fontSize=12;fontColor=#000000;strokeColor=default;fillColor=default;gradientColor=none;gradientDirection=north;direction=west;" parent="_0PlHYa_JAHvjLPgEeFG-464" vertex="1">
                    <mxGeometry width="100" height="90" as="geometry"/>
                </mxCell>
                <mxCell id="_0PlHYa_JAHvjLPgEeFG-466" value="ON SELECT" style="rounded=0;whiteSpace=wrap;html=1;shadow=0;glass=0;dashed=1;sketch=0;fontSize=12;fontColor=#000000;strokeColor=none;fillColor=default;gradientColor=none;gradientDirection=north;" parent="_0PlHYa_JAHvjLPgEeFG-464" vertex="1">
                    <mxGeometry x="11.11111111111111" y="33.75" width="77.77777777777779" height="22.5" as="geometry"/>
                </mxCell>
                <mxCell id="_0PlHYa_JAHvjLPgEeFG-117" value="!Browser" style="swimlane;startSize=40;" parent="1" vertex="1">
                    <mxGeometry x="2120" y="120" width="560" height="400" as="geometry"/>
                </mxCell>
                <mxCell id="_0PlHYa_JAHvjLPgEeFG-118" value="" style="rounded=0;whiteSpace=wrap;html=1;gradientColor=#ffffff;glass=0;shadow=0;" parent="_0PlHYa_JAHvjLPgEeFG-117" vertex="1">
                    <mxGeometry y="40" width="560" height="320" as="geometry"/>
                </mxCell>
                <mxCell id="_0PlHYa_JAHvjLPgEeFG-120" value="" style="group" parent="_0PlHYa_JAHvjLPgEeFG-117" vertex="1" connectable="0">
                    <mxGeometry x="130" y="160" width="370" height="65" as="geometry"/>
                </mxCell>
                <mxCell id="_0PlHYa_JAHvjLPgEeFG-121" value="" style="rounded=1;whiteSpace=wrap;html=1;shadow=1;" parent="_0PlHYa_JAHvjLPgEeFG-120" vertex="1">
                    <mxGeometry width="300" height="60" as="geometry"/>
                </mxCell>
                <mxCell id="_0PlHYa_JAHvjLPgEeFG-122" value="Mars" style="rounded=0;whiteSpace=wrap;html=1;align=right;" parent="_0PlHYa_JAHvjLPgEeFG-120" vertex="1">
                    <mxGeometry x="10" y="20" width="190" height="20" as="geometry"/>
                </mxCell>
                <mxCell id="_0PlHYa_JAHvjLPgEeFG-123" value="Discover" style="rounded=1;whiteSpace=wrap;html=1;" parent="_0PlHYa_JAHvjLPgEeFG-120" vertex="1">
                    <mxGeometry x="210" y="20" width="70" height="20" as="geometry"/>
                </mxCell>
                <mxCell id="_0PlHYa_JAHvjLPgEeFG-128" value="" style="html=1;shadow=0;dashed=0;align=center;verticalAlign=middle;shape=mxgraph.arrows2.arrow;dy=0.6;dx=40;flipH=1;notch=0;glass=0;sketch=0;gradientDirection=north;" parent="_0PlHYa_JAHvjLPgEeFG-120" vertex="1">
                    <mxGeometry x="270" y="-5" width="100" height="70" as="geometry"/>
                </mxCell>
                <mxCell id="_0PlHYa_JAHvjLPgEeFG-119" value="Image.Icon" style="rounded=1;whiteSpace=wrap;html=1;" parent="_0PlHYa_JAHvjLPgEeFG-117" vertex="1">
                    <mxGeometry x="20" y="60" width="70" height="20" as="geometry"/>
                </mxCell>
                <mxCell id="_0PlHYa_JAHvjLPgEeFG-124" value="&lt;h1&gt;TITLE&lt;/h1&gt;" style="rounded=0;whiteSpace=wrap;html=1;shadow=0;glass=0;fontColor=#CCCCCC;fillColor=none;gradientColor=#ffffff;sketch=0;dashed=1;" parent="_0PlHYa_JAHvjLPgEeFG-117" vertex="1">
                    <mxGeometry x="185" y="130" width="190" height="20" as="geometry"/>
                </mxCell>
                <mxCell id="_0PlHYa_JAHvjLPgEeFG-125" value="" style="rounded=0;whiteSpace=wrap;html=1;shadow=0;glass=0;dashed=1;sketch=0;fontColor=#CCCCCC;fillColor=#E6E6E6;gradientColor=#ffffff;gradientDirection=north;" parent="_0PlHYa_JAHvjLPgEeFG-117" vertex="1">
                    <mxGeometry y="330" width="560" height="70" as="geometry"/>
                </mxCell>
                <mxCell id="_0PlHYa_JAHvjLPgEeFG-126" value="Credits" style="rounded=0;whiteSpace=wrap;html=1;shadow=0;glass=0;dashed=1;sketch=0;fontColor=#CCCCCC;fillColor=none;gradientColor=#ffffff;gradientDirection=north;strokeColor=none;align=right;" parent="_0PlHYa_JAHvjLPgEeFG-117" vertex="1">
                    <mxGeometry x="40" y="370" width="500" height="20" as="geometry"/>
                </mxCell>
                <mxCell id="_0PlHYa_JAHvjLPgEeFG-1" value="!Browser" style="swimlane;startSize=40;" parent="1" vertex="1">
                    <mxGeometry x="200" y="120" width="560" height="400" as="geometry"/>
                </mxCell>
                <mxCell id="_0PlHYa_JAHvjLPgEeFG-8" value="" style="rounded=0;whiteSpace=wrap;html=1;gradientColor=#ffffff;glass=0;shadow=0;" parent="_0PlHYa_JAHvjLPgEeFG-1" vertex="1">
                    <mxGeometry y="40" width="560" height="320" as="geometry"/>
                </mxCell>
                <mxCell id="_0PlHYa_JAHvjLPgEeFG-3" value="Image.Icon" style="rounded=1;whiteSpace=wrap;html=1;" parent="_0PlHYa_JAHvjLPgEeFG-1" vertex="1">
                    <mxGeometry x="20" y="60" width="70" height="20" as="geometry"/>
                </mxCell>
                <mxCell id="_0PlHYa_JAHvjLPgEeFG-7" value="" style="group" parent="_0PlHYa_JAHvjLPgEeFG-1" vertex="1" connectable="0">
                    <mxGeometry x="130" y="160" width="300" height="60" as="geometry"/>
                </mxCell>
                <mxCell id="_0PlHYa_JAHvjLPgEeFG-6" value="" style="rounded=1;whiteSpace=wrap;html=1;shadow=1;" parent="_0PlHYa_JAHvjLPgEeFG-7" vertex="1">
                    <mxGeometry width="300" height="60" as="geometry"/>
                </mxCell>
                <mxCell id="_0PlHYa_JAHvjLPgEeFG-2" value="...type in field to begin search" style="rounded=0;whiteSpace=wrap;html=1;align=right;" parent="_0PlHYa_JAHvjLPgEeFG-7" vertex="1">
                    <mxGeometry x="10" y="20" width="190" height="20" as="geometry"/>
                </mxCell>
                <mxCell id="_0PlHYa_JAHvjLPgEeFG-5" value="Discover" style="rounded=1;whiteSpace=wrap;html=1;" parent="_0PlHYa_JAHvjLPgEeFG-7" vertex="1">
                    <mxGeometry x="210" y="20" width="70" height="20" as="geometry"/>
                </mxCell>
                <mxCell id="_0PlHYa_JAHvjLPgEeFG-10" value="&lt;h1&gt;TITLE&lt;/h1&gt;" style="rounded=0;whiteSpace=wrap;html=1;shadow=0;glass=0;fontColor=#CCCCCC;fillColor=none;gradientColor=#ffffff;sketch=0;dashed=1;" parent="_0PlHYa_JAHvjLPgEeFG-1" vertex="1">
                    <mxGeometry x="185" y="130" width="190" height="20" as="geometry"/>
                </mxCell>
                <mxCell id="_0PlHYa_JAHvjLPgEeFG-22" value="" style="rounded=0;whiteSpace=wrap;html=1;shadow=0;glass=0;dashed=1;sketch=0;fontColor=#CCCCCC;fillColor=#E6E6E6;gradientColor=#ffffff;gradientDirection=north;" parent="_0PlHYa_JAHvjLPgEeFG-1" vertex="1">
                    <mxGeometry y="330" width="560" height="70" as="geometry"/>
                </mxCell>
                <mxCell id="_0PlHYa_JAHvjLPgEeFG-23" value="Credits" style="rounded=0;whiteSpace=wrap;html=1;shadow=0;glass=0;dashed=1;sketch=0;fontColor=#CCCCCC;fillColor=none;gradientColor=#ffffff;gradientDirection=north;strokeColor=none;align=right;" parent="_0PlHYa_JAHvjLPgEeFG-1" vertex="1">
                    <mxGeometry x="40" y="370" width="500" height="20" as="geometry"/>
                </mxCell>
                <mxCell id="_0PlHYa_JAHvjLPgEeFG-9" value="HTML REF UI" style="rounded=0;whiteSpace=wrap;html=1;shadow=1;glass=0;gradientColor=#ffffff;fillColor=none;strokeColor=none;fontStyle=1;fontColor=#FF0000;" parent="1" vertex="1">
                    <mxGeometry x="10" y="10" width="210" height="30" as="geometry"/>
                </mxCell>
                <mxCell id="_0PlHYa_JAHvjLPgEeFG-24" value="!Browser" style="swimlane;startSize=40;" parent="1" vertex="1">
                    <mxGeometry x="840" y="120" width="560" height="400" as="geometry"/>
                </mxCell>
                <mxCell id="_0PlHYa_JAHvjLPgEeFG-26" value="" style="rounded=0;whiteSpace=wrap;html=1;gradientColor=#ffffff;glass=0;shadow=0;" parent="_0PlHYa_JAHvjLPgEeFG-24" vertex="1">
                    <mxGeometry y="40" width="560" height="320" as="geometry"/>
                </mxCell>
                <mxCell id="_0PlHYa_JAHvjLPgEeFG-25" value="" style="rounded=0;whiteSpace=wrap;html=1;shadow=0;glass=0;dashed=1;sketch=0;fontColor=#CCCCCC;fillColor=#E6E6E6;gradientColor=#ffffff;gradientDirection=north;" parent="_0PlHYa_JAHvjLPgEeFG-24" vertex="1">
                    <mxGeometry y="330" width="560" height="70" as="geometry"/>
                </mxCell>
                <mxCell id="_0PlHYa_JAHvjLPgEeFG-28" value="" style="group" parent="_0PlHYa_JAHvjLPgEeFG-24" vertex="1" connectable="0">
                    <mxGeometry x="130" y="160" width="300" height="60" as="geometry"/>
                </mxCell>
                <mxCell id="_0PlHYa_JAHvjLPgEeFG-29" value="" style="rounded=1;whiteSpace=wrap;html=1;shadow=1;" parent="_0PlHYa_JAHvjLPgEeFG-28" vertex="1">
                    <mxGeometry width="300" height="60" as="geometry"/>
                </mxCell>
                <mxCell id="_0PlHYa_JAHvjLPgEeFG-30" value="Ma|" style="rounded=0;whiteSpace=wrap;html=1;align=right;" parent="_0PlHYa_JAHvjLPgEeFG-28" vertex="1">
                    <mxGeometry x="10" y="20" width="190" height="20" as="geometry"/>
                </mxCell>
                <mxCell id="_0PlHYa_JAHvjLPgEeFG-31" value="Discover" style="rounded=1;whiteSpace=wrap;html=1;" parent="_0PlHYa_JAHvjLPgEeFG-28" vertex="1">
                    <mxGeometry x="210" y="20" width="70" height="20" as="geometry"/>
                </mxCell>
                <mxCell id="_0PlHYa_JAHvjLPgEeFG-83" value="" style="rounded=0;whiteSpace=wrap;html=1;shadow=0;glass=0;sketch=0;fontColor=#000000;strokeColor=default;fillColor=default;gradientColor=none;gradientDirection=north;" parent="_0PlHYa_JAHvjLPgEeFG-28" vertex="1">
                    <mxGeometry x="60" y="50" width="110" height="10" as="geometry"/>
                </mxCell>
                <mxCell id="_0PlHYa_JAHvjLPgEeFG-27" value="Image.Icon" style="rounded=1;whiteSpace=wrap;html=1;" parent="_0PlHYa_JAHvjLPgEeFG-24" vertex="1">
                    <mxGeometry x="20" y="60" width="70" height="20" as="geometry"/>
                </mxCell>
                <mxCell id="_0PlHYa_JAHvjLPgEeFG-32" value="&lt;h1&gt;TITLE&lt;/h1&gt;" style="rounded=0;whiteSpace=wrap;html=1;shadow=0;glass=0;fontColor=#CCCCCC;fillColor=none;gradientColor=#ffffff;sketch=0;dashed=1;" parent="_0PlHYa_JAHvjLPgEeFG-24" vertex="1">
                    <mxGeometry x="185" y="130" width="190" height="20" as="geometry"/>
                </mxCell>
                <mxCell id="_0PlHYa_JAHvjLPgEeFG-33" value="Credits" style="rounded=0;whiteSpace=wrap;html=1;shadow=0;glass=0;dashed=1;sketch=0;fontColor=#CCCCCC;fillColor=none;gradientColor=#ffffff;gradientDirection=north;strokeColor=none;align=right;" parent="_0PlHYa_JAHvjLPgEeFG-24" vertex="1">
                    <mxGeometry x="40" y="370" width="500" height="20" as="geometry"/>
                </mxCell>
                <mxCell id="_0PlHYa_JAHvjLPgEeFG-36" value="" style="rounded=0;whiteSpace=wrap;html=1;shadow=0;glass=0;sketch=0;fontColor=#000000;fillColor=default;gradientColor=none;gradientDirection=north;strokeColor=default;" parent="_0PlHYa_JAHvjLPgEeFG-24" vertex="1">
                    <mxGeometry x="140" y="200" width="190" height="140" as="geometry"/>
                </mxCell>
                <mxCell id="_0PlHYa_JAHvjLPgEeFG-37" value="" style="rounded=0;whiteSpace=wrap;html=1;shadow=0;glass=0;sketch=0;fontColor=#000000;strokeColor=default;fillColor=default;gradientColor=none;gradientDirection=north;" parent="_0PlHYa_JAHvjLPgEeFG-24" vertex="1">
                    <mxGeometry x="320" y="200" width="10" height="140" as="geometry"/>
                </mxCell>
                <mxCell id="_0PlHYa_JAHvjLPgEeFG-41" value="Ma..." style="rounded=0;whiteSpace=wrap;html=1;shadow=0;glass=0;sketch=0;fontColor=#000000;strokeColor=default;fillColor=default;gradientColor=none;gradientDirection=north;" parent="_0PlHYa_JAHvjLPgEeFG-24" vertex="1">
                    <mxGeometry x="140" y="200" width="180" height="30" as="geometry"/>
                </mxCell>
                <mxCell id="_0PlHYa_JAHvjLPgEeFG-56" value="Ma..." style="rounded=0;whiteSpace=wrap;html=1;shadow=0;glass=0;sketch=0;fontColor=#000000;strokeColor=default;fillColor=default;gradientColor=none;gradientDirection=north;" parent="_0PlHYa_JAHvjLPgEeFG-24" vertex="1">
                    <mxGeometry x="140" y="260" width="180" height="30" as="geometry"/>
                </mxCell>
                <mxCell id="_0PlHYa_JAHvjLPgEeFG-55" value="Ma..." style="rounded=0;whiteSpace=wrap;html=1;shadow=0;glass=0;sketch=0;fontColor=#000000;strokeColor=default;fillColor=default;gradientColor=none;gradientDirection=north;" parent="_0PlHYa_JAHvjLPgEeFG-24" vertex="1">
                    <mxGeometry x="140" y="230" width="180" height="30" as="geometry"/>
                </mxCell>
                <mxCell id="_0PlHYa_JAHvjLPgEeFG-72" value="Ma..." style="rounded=0;whiteSpace=wrap;html=1;shadow=0;glass=0;sketch=0;fontColor=#000000;strokeColor=default;fillColor=default;gradientColor=none;gradientDirection=north;" parent="_0PlHYa_JAHvjLPgEeFG-24" vertex="1">
                    <mxGeometry x="140" y="290" width="180" height="30" as="geometry"/>
                </mxCell>
                <mxCell id="_0PlHYa_JAHvjLPgEeFG-73" value="" style="rounded=0;whiteSpace=wrap;html=1;shadow=0;glass=0;sketch=0;fontColor=#000000;strokeColor=default;fillColor=default;gradientColor=none;gradientDirection=north;" parent="_0PlHYa_JAHvjLPgEeFG-24" vertex="1">
                    <mxGeometry x="145" y="205" width="40" height="20" as="geometry"/>
                </mxCell>
                <mxCell id="_0PlHYa_JAHvjLPgEeFG-77" value="" style="rounded=0;whiteSpace=wrap;html=1;shadow=0;glass=0;sketch=0;fontColor=#000000;strokeColor=default;fillColor=default;gradientColor=none;gradientDirection=north;" parent="_0PlHYa_JAHvjLPgEeFG-24" vertex="1">
                    <mxGeometry x="145" y="325" width="40" height="15" as="geometry"/>
                </mxCell>
                <mxCell id="_0PlHYa_JAHvjLPgEeFG-76" value="" style="rounded=0;whiteSpace=wrap;html=1;shadow=0;glass=0;sketch=0;fontColor=#000000;strokeColor=default;fillColor=default;gradientColor=none;gradientDirection=north;" parent="_0PlHYa_JAHvjLPgEeFG-24" vertex="1">
                    <mxGeometry x="145" y="295" width="40" height="20" as="geometry"/>
                </mxCell>
                <mxCell id="_0PlHYa_JAHvjLPgEeFG-75" value="" style="rounded=0;whiteSpace=wrap;html=1;shadow=0;glass=0;sketch=0;fontColor=#000000;strokeColor=default;fillColor=default;gradientColor=none;gradientDirection=north;" parent="_0PlHYa_JAHvjLPgEeFG-24" vertex="1">
                    <mxGeometry x="145" y="265" width="40" height="20" as="geometry"/>
                </mxCell>
                <mxCell id="_0PlHYa_JAHvjLPgEeFG-74" value="" style="rounded=0;whiteSpace=wrap;html=1;shadow=0;glass=0;sketch=0;fontColor=#000000;strokeColor=default;fillColor=default;gradientColor=none;gradientDirection=north;" parent="_0PlHYa_JAHvjLPgEeFG-24" vertex="1">
                    <mxGeometry x="145" y="235" width="40" height="20" as="geometry"/>
                </mxCell>
                <mxCell id="_0PlHYa_JAHvjLPgEeFG-35" value="" style="endArrow=classic;html=1;rounded=0;fontColor=#000000;exitX=1;exitY=0.5;exitDx=0;exitDy=0;entryX=0;entryY=0.5;entryDx=0;entryDy=0;" parent="1" source="_0PlHYa_JAHvjLPgEeFG-1" target="_0PlHYa_JAHvjLPgEeFG-26" edge="1">
                    <mxGeometry width="50" height="50" relative="1" as="geometry">
                        <mxPoint x="880" y="270" as="sourcePoint"/>
                        <mxPoint x="930" y="220" as="targetPoint"/>
                    </mxGeometry>
                </mxCell>
                <mxCell id="_0PlHYa_JAHvjLPgEeFG-84" value="!Browser" style="swimlane;startSize=40;" parent="1" vertex="1">
                    <mxGeometry x="1480" y="120" width="560" height="400" as="geometry"/>
                </mxCell>
                <mxCell id="_0PlHYa_JAHvjLPgEeFG-85" value="" style="rounded=0;whiteSpace=wrap;html=1;gradientColor=#ffffff;glass=0;shadow=0;" parent="_0PlHYa_JAHvjLPgEeFG-84" vertex="1">
                    <mxGeometry y="40" width="560" height="320" as="geometry"/>
                </mxCell>
                <mxCell id="_0PlHYa_JAHvjLPgEeFG-86" value="" style="rounded=0;whiteSpace=wrap;html=1;shadow=0;glass=0;dashed=1;sketch=0;fontColor=#CCCCCC;fillColor=#E6E6E6;gradientColor=#ffffff;gradientDirection=north;" parent="_0PlHYa_JAHvjLPgEeFG-84" vertex="1">
                    <mxGeometry y="330" width="560" height="70" as="geometry"/>
                </mxCell>
                <mxCell id="_0PlHYa_JAHvjLPgEeFG-87" value="" style="group" parent="_0PlHYa_JAHvjLPgEeFG-84" vertex="1" connectable="0">
                    <mxGeometry x="130" y="160" width="390" height="65" as="geometry"/>
                </mxCell>
                <mxCell id="_0PlHYa_JAHvjLPgEeFG-88" value="" style="rounded=1;whiteSpace=wrap;html=1;shadow=1;" parent="_0PlHYa_JAHvjLPgEeFG-87" vertex="1">
                    <mxGeometry width="300" height="60" as="geometry"/>
                </mxCell>
                <mxCell id="_0PlHYa_JAHvjLPgEeFG-89" value="Ma|" style="rounded=0;whiteSpace=wrap;html=1;align=right;" parent="_0PlHYa_JAHvjLPgEeFG-87" vertex="1">
                    <mxGeometry x="10" y="20" width="190" height="20" as="geometry"/>
                </mxCell>
                <mxCell id="_0PlHYa_JAHvjLPgEeFG-90" value="Discover" style="rounded=1;whiteSpace=wrap;html=1;" parent="_0PlHYa_JAHvjLPgEeFG-87" vertex="1">
                    <mxGeometry x="210" y="20" width="70" height="20" as="geometry"/>
                </mxCell>
                <mxCell id="_0PlHYa_JAHvjLPgEeFG-91" value="" style="rounded=0;whiteSpace=wrap;html=1;shadow=0;glass=0;sketch=0;fontColor=#000000;strokeColor=default;fillColor=default;gradientColor=none;gradientDirection=north;" parent="_0PlHYa_JAHvjLPgEeFG-87" vertex="1">
                    <mxGeometry x="60" y="50" width="110" height="10" as="geometry"/>
                </mxCell>
                <mxCell id="_0PlHYa_JAHvjLPgEeFG-92" value="Image.Icon" style="rounded=1;whiteSpace=wrap;html=1;" parent="_0PlHYa_JAHvjLPgEeFG-84" vertex="1">
                    <mxGeometry x="20" y="60" width="70" height="20" as="geometry"/>
                </mxCell>
                <mxCell id="_0PlHYa_JAHvjLPgEeFG-93" value="&lt;h1&gt;TITLE&lt;/h1&gt;" style="rounded=0;whiteSpace=wrap;html=1;shadow=0;glass=0;fontColor=#CCCCCC;fillColor=none;gradientColor=#ffffff;sketch=0;dashed=1;" parent="_0PlHYa_JAHvjLPgEeFG-84" vertex="1">
                    <mxGeometry x="185" y="130" width="190" height="20" as="geometry"/>
                </mxCell>
                <mxCell id="_0PlHYa_JAHvjLPgEeFG-94" value="Credits" style="rounded=0;whiteSpace=wrap;html=1;shadow=0;glass=0;dashed=1;sketch=0;fontColor=#CCCCCC;fillColor=none;gradientColor=#ffffff;gradientDirection=north;strokeColor=none;align=right;" parent="_0PlHYa_JAHvjLPgEeFG-84" vertex="1">
                    <mxGeometry x="40" y="370" width="500" height="20" as="geometry"/>
                </mxCell>
                <mxCell id="_0PlHYa_JAHvjLPgEeFG-95" value="" style="rounded=0;whiteSpace=wrap;html=1;shadow=0;glass=0;sketch=0;fontColor=#000000;fillColor=default;gradientColor=none;gradientDirection=north;strokeColor=default;" parent="_0PlHYa_JAHvjLPgEeFG-84" vertex="1">
                    <mxGeometry x="140" y="200" width="190" height="140" as="geometry"/>
                </mxCell>
                <mxCell id="_0PlHYa_JAHvjLPgEeFG-96" value="" style="rounded=0;whiteSpace=wrap;html=1;shadow=0;glass=0;sketch=0;fontColor=#000000;strokeColor=default;fillColor=default;gradientColor=none;gradientDirection=north;" parent="_0PlHYa_JAHvjLPgEeFG-84" vertex="1">
                    <mxGeometry x="320" y="200" width="10" height="140" as="geometry"/>
                </mxCell>
                <mxCell id="_0PlHYa_JAHvjLPgEeFG-97" value="Ma..." style="rounded=0;whiteSpace=wrap;html=1;shadow=0;glass=0;sketch=0;fontColor=#000000;strokeColor=default;fillColor=default;gradientColor=none;gradientDirection=north;" parent="_0PlHYa_JAHvjLPgEeFG-84" vertex="1">
                    <mxGeometry x="140" y="200" width="180" height="30" as="geometry"/>
                </mxCell>
                <mxCell id="_0PlHYa_JAHvjLPgEeFG-98" value="Ma..." style="rounded=0;whiteSpace=wrap;html=1;shadow=0;glass=0;sketch=0;fontColor=#000000;strokeColor=default;fillColor=default;gradientColor=none;gradientDirection=north;" parent="_0PlHYa_JAHvjLPgEeFG-84" vertex="1">
                    <mxGeometry x="140" y="260" width="180" height="30" as="geometry"/>
                </mxCell>
                <mxCell id="_0PlHYa_JAHvjLPgEeFG-99" value="Mars..." style="rounded=0;whiteSpace=wrap;html=1;shadow=0;glass=0;sketch=0;fontColor=#000000;strokeColor=default;fillColor=default;gradientColor=none;gradientDirection=north;fontStyle=0" parent="_0PlHYa_JAHvjLPgEeFG-84" vertex="1">
                    <mxGeometry x="140" y="230" width="180" height="30" as="geometry"/>
                </mxCell>
                <mxCell id="_0PlHYa_JAHvjLPgEeFG-100" value="Ma..." style="rounded=0;whiteSpace=wrap;html=1;shadow=0;glass=0;sketch=0;fontColor=#000000;strokeColor=default;fillColor=default;gradientColor=none;gradientDirection=north;" parent="_0PlHYa_JAHvjLPgEeFG-84" vertex="1">
                    <mxGeometry x="140" y="290" width="180" height="30" as="geometry"/>
                </mxCell>
                <mxCell id="_0PlHYa_JAHvjLPgEeFG-101" value="" style="rounded=0;whiteSpace=wrap;html=1;shadow=0;glass=0;sketch=0;fontColor=#000000;strokeColor=default;fillColor=default;gradientColor=none;gradientDirection=north;" parent="_0PlHYa_JAHvjLPgEeFG-84" vertex="1">
                    <mxGeometry x="145" y="205" width="40" height="20" as="geometry"/>
                </mxCell>
                <mxCell id="_0PlHYa_JAHvjLPgEeFG-102" value="" style="rounded=0;whiteSpace=wrap;html=1;shadow=0;glass=0;sketch=0;fontColor=#000000;strokeColor=default;fillColor=default;gradientColor=none;gradientDirection=north;" parent="_0PlHYa_JAHvjLPgEeFG-84" vertex="1">
                    <mxGeometry x="145" y="325" width="40" height="15" as="geometry"/>
                </mxCell>
                <mxCell id="_0PlHYa_JAHvjLPgEeFG-103" value="" style="rounded=0;whiteSpace=wrap;html=1;shadow=0;glass=0;sketch=0;fontColor=#000000;strokeColor=default;fillColor=default;gradientColor=none;gradientDirection=north;" parent="_0PlHYa_JAHvjLPgEeFG-84" vertex="1">
                    <mxGeometry x="145" y="295" width="40" height="20" as="geometry"/>
                </mxCell>
                <mxCell id="_0PlHYa_JAHvjLPgEeFG-104" value="" style="rounded=0;whiteSpace=wrap;html=1;shadow=0;glass=0;sketch=0;fontColor=#000000;strokeColor=default;fillColor=default;gradientColor=none;gradientDirection=north;" parent="_0PlHYa_JAHvjLPgEeFG-84" vertex="1">
                    <mxGeometry x="145" y="265" width="40" height="20" as="geometry"/>
                </mxCell>
                <mxCell id="_0PlHYa_JAHvjLPgEeFG-105" value="" style="rounded=0;whiteSpace=wrap;html=1;shadow=0;glass=0;sketch=0;fontColor=#000000;strokeColor=default;fillColor=default;gradientColor=none;gradientDirection=north;" parent="_0PlHYa_JAHvjLPgEeFG-84" vertex="1">
                    <mxGeometry x="145" y="235" width="40" height="20" as="geometry"/>
                </mxCell>
                <mxCell id="_0PlHYa_JAHvjLPgEeFG-109" value="" style="html=1;shadow=0;dashed=0;align=center;verticalAlign=middle;shape=mxgraph.arrows2.arrow;dy=0.6;dx=40;notch=0;glass=0;sketch=0;fontColor=#000000;strokeColor=default;fillColor=default;gradientColor=none;gradientDirection=north;direction=west;" parent="_0PlHYa_JAHvjLPgEeFG-84" vertex="1">
                    <mxGeometry x="310" y="195" width="110" height="95" as="geometry"/>
                </mxCell>
                <mxCell id="_0PlHYa_JAHvjLPgEeFG-113" value="ON USER SELECT" style="rounded=0;whiteSpace=wrap;html=1;shadow=0;glass=0;sketch=0;fontColor=#000000;strokeColor=none;fillColor=none;gradientColor=none;gradientDirection=north;fontStyle=1" parent="_0PlHYa_JAHvjLPgEeFG-84" vertex="1">
                    <mxGeometry x="330" y="230" width="80" height="30" as="geometry"/>
                </mxCell>
                <mxCell id="_0PlHYa_JAHvjLPgEeFG-116" style="edgeStyle=orthogonalEdgeStyle;rounded=0;orthogonalLoop=1;jettySize=auto;html=1;exitX=1;exitY=0;exitDx=0;exitDy=0;entryX=0.75;entryY=0;entryDx=0;entryDy=0;fontColor=#000000;" parent="_0PlHYa_JAHvjLPgEeFG-84" source="_0PlHYa_JAHvjLPgEeFG-115" target="_0PlHYa_JAHvjLPgEeFG-97" edge="1">
                    <mxGeometry relative="1" as="geometry"/>
                </mxCell>
                <mxCell id="_0PlHYa_JAHvjLPgEeFG-115" value="" style="rounded=0;whiteSpace=wrap;html=1;shadow=0;glass=0;sketch=0;fontColor=#000000;strokeColor=none;fillColor=none;gradientColor=none;gradientDirection=north;" parent="_0PlHYa_JAHvjLPgEeFG-84" vertex="1">
                    <mxGeometry x="200" y="236.25" width="60" height="17.5" as="geometry"/>
                </mxCell>
                <mxCell id="_0PlHYa_JAHvjLPgEeFG-110" style="edgeStyle=orthogonalEdgeStyle;rounded=0;orthogonalLoop=1;jettySize=auto;html=1;exitX=1;exitY=0.5;exitDx=0;exitDy=0;entryX=0;entryY=0.5;entryDx=0;entryDy=0;fontColor=#000000;" parent="1" source="_0PlHYa_JAHvjLPgEeFG-26" target="_0PlHYa_JAHvjLPgEeFG-84" edge="1">
                    <mxGeometry relative="1" as="geometry"/>
                </mxCell>
                <mxCell id="_0PlHYa_JAHvjLPgEeFG-127" style="edgeStyle=orthogonalEdgeStyle;rounded=0;orthogonalLoop=1;jettySize=auto;html=1;exitX=1;exitY=0.5;exitDx=0;exitDy=0;entryX=0;entryY=0.5;entryDx=0;entryDy=0;fontColor=#000000;" parent="1" source="_0PlHYa_JAHvjLPgEeFG-85" target="_0PlHYa_JAHvjLPgEeFG-117" edge="1">
                    <mxGeometry relative="1" as="geometry"/>
                </mxCell>
                <mxCell id="_0PlHYa_JAHvjLPgEeFG-129" value="!Browser" style="swimlane;startSize=40;" parent="1" vertex="1">
                    <mxGeometry x="200" y="700" width="560" height="670" as="geometry"/>
                </mxCell>
                <mxCell id="_0PlHYa_JAHvjLPgEeFG-130" value="" style="rounded=0;whiteSpace=wrap;html=1;gradientColor=#ffffff;glass=0;shadow=0;" parent="_0PlHYa_JAHvjLPgEeFG-129" vertex="1">
                    <mxGeometry y="40" width="560" height="600" as="geometry"/>
                </mxCell>
                <mxCell id="_0PlHYa_JAHvjLPgEeFG-136" value="&lt;h1&gt;&lt;font style=&quot;font-size: 22px&quot;&gt;TITLE&lt;/font&gt;&lt;/h1&gt;" style="rounded=0;whiteSpace=wrap;html=1;shadow=0;glass=0;fontColor=#CCCCCC;fillColor=none;gradientColor=#ffffff;sketch=0;dashed=1;" parent="_0PlHYa_JAHvjLPgEeFG-129" vertex="1">
                    <mxGeometry x="30" y="60" width="70" height="30" as="geometry"/>
                </mxCell>
                <mxCell id="_0PlHYa_JAHvjLPgEeFG-132" value="" style="group" parent="_0PlHYa_JAHvjLPgEeFG-129" vertex="1" connectable="0">
                    <mxGeometry x="140" y="60" width="300" height="30" as="geometry"/>
                </mxCell>
                <mxCell id="_0PlHYa_JAHvjLPgEeFG-133" value="" style="rounded=1;whiteSpace=wrap;html=1;shadow=1;" parent="_0PlHYa_JAHvjLPgEeFG-132" vertex="1">
                    <mxGeometry width="300" height="30" as="geometry"/>
                </mxCell>
                <mxCell id="_0PlHYa_JAHvjLPgEeFG-134" value="...type in field to begin search" style="rounded=0;whiteSpace=wrap;html=1;align=right;" parent="_0PlHYa_JAHvjLPgEeFG-132" vertex="1">
                    <mxGeometry x="10" y="10" width="190" height="10" as="geometry"/>
                </mxCell>
                <mxCell id="_0PlHYa_JAHvjLPgEeFG-135" value="Discover" style="rounded=1;whiteSpace=wrap;html=1;" parent="_0PlHYa_JAHvjLPgEeFG-132" vertex="1">
                    <mxGeometry x="210" y="10" width="70" height="10" as="geometry"/>
                </mxCell>
                <mxCell id="_0PlHYa_JAHvjLPgEeFG-137" value="" style="rounded=0;whiteSpace=wrap;html=1;shadow=0;glass=0;dashed=1;sketch=0;fontColor=#CCCCCC;fillColor=#E6E6E6;gradientColor=#ffffff;gradientDirection=north;" parent="_0PlHYa_JAHvjLPgEeFG-129" vertex="1">
                    <mxGeometry y="600" width="560" height="70" as="geometry"/>
                </mxCell>
                <mxCell id="_0PlHYa_JAHvjLPgEeFG-138" value="Credits" style="rounded=0;whiteSpace=wrap;html=1;shadow=0;glass=0;dashed=1;sketch=0;fontColor=#CCCCCC;fillColor=none;gradientColor=#ffffff;gradientDirection=north;strokeColor=none;align=right;" parent="_0PlHYa_JAHvjLPgEeFG-129" vertex="1">
                    <mxGeometry x="30" y="640" width="500" height="20" as="geometry"/>
                </mxCell>
                <mxCell id="_0PlHYa_JAHvjLPgEeFG-140" value="" style="rounded=0;whiteSpace=wrap;html=1;shadow=0;glass=0;sketch=0;fontColor=#000000;strokeColor=default;fillColor=default;gradientColor=none;gradientDirection=north;" parent="_0PlHYa_JAHvjLPgEeFG-129" vertex="1">
                    <mxGeometry x="10" y="160" width="540" height="420" as="geometry"/>
                </mxCell>
                <mxCell id="_0PlHYa_JAHvjLPgEeFG-141" value="&amp;nbsp; Mars: results ..." style="rounded=0;whiteSpace=wrap;html=1;shadow=0;glass=0;sketch=0;fontColor=#000000;strokeColor=default;fillColor=default;gradientColor=none;gradientDirection=north;align=left;" parent="_0PlHYa_JAHvjLPgEeFG-129" vertex="1">
                    <mxGeometry x="30" y="120" width="490" height="30" as="geometry"/>
                </mxCell>
                <mxCell id="_0PlHYa_JAHvjLPgEeFG-153" value="" style="group" parent="_0PlHYa_JAHvjLPgEeFG-129" vertex="1" connectable="0">
                    <mxGeometry x="40" y="170" width="510" height="350" as="geometry"/>
                </mxCell>
                <mxCell id="_0PlHYa_JAHvjLPgEeFG-142" value="" style="rounded=0;whiteSpace=wrap;html=1;shadow=0;glass=0;sketch=0;fontColor=#000000;strokeColor=default;fillColor=default;gradientColor=none;gradientDirection=north;" parent="_0PlHYa_JAHvjLPgEeFG-153" vertex="1">
                    <mxGeometry width="70" height="60" as="geometry"/>
                </mxCell>
                <mxCell id="_0PlHYa_JAHvjLPgEeFG-149" value="" style="rounded=0;whiteSpace=wrap;html=1;shadow=0;glass=0;sketch=0;fontColor=#000000;strokeColor=default;fillColor=default;gradientColor=none;gradientDirection=north;" parent="_0PlHYa_JAHvjLPgEeFG-153" vertex="1">
                    <mxGeometry x="320" width="70" height="60" as="geometry"/>
                </mxCell>
                <mxCell id="_0PlHYa_JAHvjLPgEeFG-148" value="" style="rounded=0;whiteSpace=wrap;html=1;shadow=0;glass=0;sketch=0;fontColor=#000000;strokeColor=default;fillColor=default;gradientColor=none;gradientDirection=north;" parent="_0PlHYa_JAHvjLPgEeFG-153" vertex="1">
                    <mxGeometry x="240" width="70" height="60" as="geometry"/>
                </mxCell>
                <mxCell id="_0PlHYa_JAHvjLPgEeFG-147" value="" style="rounded=0;whiteSpace=wrap;html=1;shadow=0;glass=0;sketch=0;fontColor=#000000;strokeColor=default;fillColor=default;gradientColor=none;gradientDirection=north;" parent="_0PlHYa_JAHvjLPgEeFG-153" vertex="1">
                    <mxGeometry x="160" width="70" height="60" as="geometry"/>
                </mxCell>
                <mxCell id="_0PlHYa_JAHvjLPgEeFG-146" value="" style="rounded=0;whiteSpace=wrap;html=1;shadow=0;glass=0;sketch=0;fontColor=#000000;strokeColor=default;fillColor=default;gradientColor=none;gradientDirection=north;" parent="_0PlHYa_JAHvjLPgEeFG-153" vertex="1">
                    <mxGeometry x="80" width="70" height="60" as="geometry"/>
                </mxCell>
                <mxCell id="_0PlHYa_JAHvjLPgEeFG-145" value="" style="rounded=0;whiteSpace=wrap;html=1;shadow=0;glass=0;sketch=0;fontColor=#000000;strokeColor=default;fillColor=default;gradientColor=none;gradientDirection=north;" parent="_0PlHYa_JAHvjLPgEeFG-153" vertex="1">
                    <mxGeometry x="400" width="70" height="60" as="geometry"/>
                </mxCell>
                <mxCell id="_0PlHYa_JAHvjLPgEeFG-183" value="" style="rounded=0;whiteSpace=wrap;html=1;shadow=0;glass=0;sketch=0;fontColor=#000000;strokeColor=default;fillColor=default;gradientColor=none;gradientDirection=north;" parent="_0PlHYa_JAHvjLPgEeFG-153" vertex="1">
                    <mxGeometry x="490" y="-10" width="20" height="360" as="geometry"/>
                </mxCell>
                <mxCell id="_0PlHYa_JAHvjLPgEeFG-168" value="" style="group" parent="_0PlHYa_JAHvjLPgEeFG-129" vertex="1" connectable="0">
                    <mxGeometry x="40" y="310" width="470" height="60" as="geometry"/>
                </mxCell>
                <mxCell id="_0PlHYa_JAHvjLPgEeFG-169" value="" style="rounded=0;whiteSpace=wrap;html=1;shadow=0;glass=0;sketch=0;fontColor=#000000;strokeColor=default;fillColor=default;gradientColor=none;gradientDirection=north;" parent="_0PlHYa_JAHvjLPgEeFG-168" vertex="1">
                    <mxGeometry width="70" height="60" as="geometry"/>
                </mxCell>
                <mxCell id="_0PlHYa_JAHvjLPgEeFG-170" value="" style="rounded=0;whiteSpace=wrap;html=1;shadow=0;glass=0;sketch=0;fontColor=#000000;strokeColor=default;fillColor=default;gradientColor=none;gradientDirection=north;" parent="_0PlHYa_JAHvjLPgEeFG-168" vertex="1">
                    <mxGeometry x="320" width="70" height="60" as="geometry"/>
                </mxCell>
                <mxCell id="_0PlHYa_JAHvjLPgEeFG-171" value="" style="rounded=0;whiteSpace=wrap;html=1;shadow=0;glass=0;sketch=0;fontColor=#000000;strokeColor=default;fillColor=default;gradientColor=none;gradientDirection=north;" parent="_0PlHYa_JAHvjLPgEeFG-168" vertex="1">
                    <mxGeometry x="240" width="70" height="60" as="geometry"/>
                </mxCell>
                <mxCell id="_0PlHYa_JAHvjLPgEeFG-172" value="" style="rounded=0;whiteSpace=wrap;html=1;shadow=0;glass=0;sketch=0;fontColor=#000000;strokeColor=default;fillColor=default;gradientColor=none;gradientDirection=north;" parent="_0PlHYa_JAHvjLPgEeFG-168" vertex="1">
                    <mxGeometry x="160" width="70" height="60" as="geometry"/>
                </mxCell>
                <mxCell id="_0PlHYa_JAHvjLPgEeFG-173" value="" style="rounded=0;whiteSpace=wrap;html=1;shadow=0;glass=0;sketch=0;fontColor=#000000;strokeColor=default;fillColor=default;gradientColor=none;gradientDirection=north;" parent="_0PlHYa_JAHvjLPgEeFG-168" vertex="1">
                    <mxGeometry x="80" width="70" height="60" as="geometry"/>
                </mxCell>
                <mxCell id="_0PlHYa_JAHvjLPgEeFG-174" value="" style="rounded=0;whiteSpace=wrap;html=1;shadow=0;glass=0;sketch=0;fontColor=#000000;strokeColor=default;fillColor=default;gradientColor=none;gradientDirection=north;" parent="_0PlHYa_JAHvjLPgEeFG-168" vertex="1">
                    <mxGeometry x="400" width="70" height="60" as="geometry"/>
                </mxCell>
                <mxCell id="_0PlHYa_JAHvjLPgEeFG-161" value="" style="group" parent="_0PlHYa_JAHvjLPgEeFG-129" vertex="1" connectable="0">
                    <mxGeometry x="40" y="240" width="470" height="60" as="geometry"/>
                </mxCell>
                <mxCell id="_0PlHYa_JAHvjLPgEeFG-162" value="" style="rounded=0;whiteSpace=wrap;html=1;shadow=0;glass=0;sketch=0;fontColor=#000000;strokeColor=default;fillColor=default;gradientColor=none;gradientDirection=north;" parent="_0PlHYa_JAHvjLPgEeFG-161" vertex="1">
                    <mxGeometry width="70" height="60" as="geometry"/>
                </mxCell>
                <mxCell id="_0PlHYa_JAHvjLPgEeFG-163" value="" style="rounded=0;whiteSpace=wrap;html=1;shadow=0;glass=0;sketch=0;fontColor=#000000;strokeColor=default;fillColor=default;gradientColor=none;gradientDirection=north;" parent="_0PlHYa_JAHvjLPgEeFG-161" vertex="1">
                    <mxGeometry x="320" width="70" height="60" as="geometry"/>
                </mxCell>
                <mxCell id="_0PlHYa_JAHvjLPgEeFG-164" value="" style="rounded=0;whiteSpace=wrap;html=1;shadow=0;glass=0;sketch=0;fontColor=#000000;strokeColor=default;fillColor=default;gradientColor=none;gradientDirection=north;" parent="_0PlHYa_JAHvjLPgEeFG-161" vertex="1">
                    <mxGeometry x="240" width="70" height="60" as="geometry"/>
                </mxCell>
                <mxCell id="_0PlHYa_JAHvjLPgEeFG-165" value="" style="rounded=0;whiteSpace=wrap;html=1;shadow=0;glass=0;sketch=0;fontColor=#000000;strokeColor=default;fillColor=default;gradientColor=none;gradientDirection=north;" parent="_0PlHYa_JAHvjLPgEeFG-161" vertex="1">
                    <mxGeometry x="160" width="70" height="60" as="geometry"/>
                </mxCell>
                <mxCell id="_0PlHYa_JAHvjLPgEeFG-166" value="" style="rounded=0;whiteSpace=wrap;html=1;shadow=0;glass=0;sketch=0;fontColor=#000000;strokeColor=default;fillColor=default;gradientColor=none;gradientDirection=north;" parent="_0PlHYa_JAHvjLPgEeFG-161" vertex="1">
                    <mxGeometry x="80" width="70" height="60" as="geometry"/>
                </mxCell>
                <mxCell id="_0PlHYa_JAHvjLPgEeFG-167" value="" style="rounded=0;whiteSpace=wrap;html=1;shadow=0;glass=0;sketch=0;fontColor=#000000;strokeColor=default;fillColor=default;gradientColor=none;gradientDirection=north;" parent="_0PlHYa_JAHvjLPgEeFG-161" vertex="1">
                    <mxGeometry x="400" width="70" height="60" as="geometry"/>
                </mxCell>
                <mxCell id="_0PlHYa_JAHvjLPgEeFG-154" value="" style="group" parent="_0PlHYa_JAHvjLPgEeFG-129" vertex="1" connectable="0">
                    <mxGeometry x="40" y="380" width="470" height="60" as="geometry"/>
                </mxCell>
                <mxCell id="_0PlHYa_JAHvjLPgEeFG-155" value="" style="rounded=0;whiteSpace=wrap;html=1;shadow=0;glass=0;sketch=0;fontColor=#000000;strokeColor=default;fillColor=default;gradientColor=none;gradientDirection=north;" parent="_0PlHYa_JAHvjLPgEeFG-154" vertex="1">
                    <mxGeometry width="70" height="60" as="geometry"/>
                </mxCell>
                <mxCell id="_0PlHYa_JAHvjLPgEeFG-156" value="" style="rounded=0;whiteSpace=wrap;html=1;shadow=0;glass=0;sketch=0;fontColor=#000000;strokeColor=default;fillColor=default;gradientColor=none;gradientDirection=north;" parent="_0PlHYa_JAHvjLPgEeFG-154" vertex="1">
                    <mxGeometry x="320" width="70" height="60" as="geometry"/>
                </mxCell>
                <mxCell id="_0PlHYa_JAHvjLPgEeFG-157" value="" style="rounded=0;whiteSpace=wrap;html=1;shadow=0;glass=0;sketch=0;fontColor=#000000;strokeColor=default;fillColor=default;gradientColor=none;gradientDirection=north;" parent="_0PlHYa_JAHvjLPgEeFG-154" vertex="1">
                    <mxGeometry x="240" width="70" height="60" as="geometry"/>
                </mxCell>
                <mxCell id="_0PlHYa_JAHvjLPgEeFG-158" value="" style="rounded=0;whiteSpace=wrap;html=1;shadow=0;glass=0;sketch=0;fontColor=#000000;strokeColor=default;fillColor=default;gradientColor=none;gradientDirection=north;" parent="_0PlHYa_JAHvjLPgEeFG-154" vertex="1">
                    <mxGeometry x="160" width="70" height="60" as="geometry"/>
                </mxCell>
                <mxCell id="_0PlHYa_JAHvjLPgEeFG-159" value="" style="rounded=0;whiteSpace=wrap;html=1;shadow=0;glass=0;sketch=0;fontColor=#000000;strokeColor=default;fillColor=default;gradientColor=none;gradientDirection=north;" parent="_0PlHYa_JAHvjLPgEeFG-154" vertex="1">
                    <mxGeometry x="80" width="70" height="60" as="geometry"/>
                </mxCell>
                <mxCell id="_0PlHYa_JAHvjLPgEeFG-160" value="" style="rounded=0;whiteSpace=wrap;html=1;shadow=0;glass=0;sketch=0;fontColor=#000000;strokeColor=default;fillColor=default;gradientColor=none;gradientDirection=north;" parent="_0PlHYa_JAHvjLPgEeFG-154" vertex="1">
                    <mxGeometry x="400" width="70" height="60" as="geometry"/>
                </mxCell>
                <mxCell id="_0PlHYa_JAHvjLPgEeFG-175" value="" style="group" parent="_0PlHYa_JAHvjLPgEeFG-129" vertex="1" connectable="0">
                    <mxGeometry x="40" y="450" width="470" height="60" as="geometry"/>
                </mxCell>
                <mxCell id="_0PlHYa_JAHvjLPgEeFG-176" value="" style="rounded=0;whiteSpace=wrap;html=1;shadow=0;glass=0;sketch=0;fontColor=#000000;strokeColor=default;fillColor=default;gradientColor=none;gradientDirection=north;" parent="_0PlHYa_JAHvjLPgEeFG-175" vertex="1">
                    <mxGeometry width="70" height="60" as="geometry"/>
                </mxCell>
                <mxCell id="_0PlHYa_JAHvjLPgEeFG-177" value="" style="rounded=0;whiteSpace=wrap;html=1;shadow=0;glass=0;sketch=0;fontColor=#000000;strokeColor=default;fillColor=default;gradientColor=none;gradientDirection=north;" parent="_0PlHYa_JAHvjLPgEeFG-175" vertex="1">
                    <mxGeometry x="320" width="70" height="60" as="geometry"/>
                </mxCell>
                <mxCell id="_0PlHYa_JAHvjLPgEeFG-178" value="" style="rounded=0;whiteSpace=wrap;html=1;shadow=0;glass=0;sketch=0;fontColor=#000000;strokeColor=default;fillColor=default;gradientColor=none;gradientDirection=north;" parent="_0PlHYa_JAHvjLPgEeFG-175" vertex="1">
                    <mxGeometry x="240" width="70" height="60" as="geometry"/>
                </mxCell>
                <mxCell id="_0PlHYa_JAHvjLPgEeFG-179" value="" style="rounded=0;whiteSpace=wrap;html=1;shadow=0;glass=0;sketch=0;fontColor=#000000;strokeColor=default;fillColor=default;gradientColor=none;gradientDirection=north;" parent="_0PlHYa_JAHvjLPgEeFG-175" vertex="1">
                    <mxGeometry x="160" width="70" height="60" as="geometry"/>
                </mxCell>
                <mxCell id="_0PlHYa_JAHvjLPgEeFG-180" value="" style="rounded=0;whiteSpace=wrap;html=1;shadow=0;glass=0;sketch=0;fontColor=#000000;strokeColor=default;fillColor=default;gradientColor=none;gradientDirection=north;" parent="_0PlHYa_JAHvjLPgEeFG-175" vertex="1">
                    <mxGeometry x="80" width="70" height="60" as="geometry"/>
                </mxCell>
                <mxCell id="_0PlHYa_JAHvjLPgEeFG-181" value="" style="rounded=0;whiteSpace=wrap;html=1;shadow=0;glass=0;sketch=0;fontColor=#000000;strokeColor=default;fillColor=default;gradientColor=none;gradientDirection=north;" parent="_0PlHYa_JAHvjLPgEeFG-175" vertex="1">
                    <mxGeometry x="400" width="70" height="60" as="geometry"/>
                </mxCell>
                <mxCell id="_0PlHYa_JAHvjLPgEeFG-182" value="PAGINATION" style="rounded=0;whiteSpace=wrap;html=1;shadow=0;glass=0;sketch=0;fontColor=#000000;strokeColor=default;fillColor=none;gradientColor=none;gradientDirection=north;dashed=1;" parent="_0PlHYa_JAHvjLPgEeFG-129" vertex="1">
                    <mxGeometry x="20" y="540" width="510" height="30" as="geometry"/>
                </mxCell>
                <mxCell id="_0PlHYa_JAHvjLPgEeFG-184" value="" style="endArrow=none;html=1;rounded=0;fontColor=#000000;exitX=0;exitY=0;exitDx=0;exitDy=0;entryX=1;entryY=0;entryDx=0;entryDy=0;" parent="_0PlHYa_JAHvjLPgEeFG-129" source="_0PlHYa_JAHvjLPgEeFG-182" target="_0PlHYa_JAHvjLPgEeFG-182" edge="1">
                    <mxGeometry width="50" height="50" relative="1" as="geometry">
                        <mxPoint x="350" y="380" as="sourcePoint"/>
                        <mxPoint x="530" y="530" as="targetPoint"/>
                        <Array as="points"/>
                    </mxGeometry>
                </mxCell>
                <mxCell id="_0PlHYa_JAHvjLPgEeFG-139" style="edgeStyle=orthogonalEdgeStyle;rounded=0;orthogonalLoop=1;jettySize=auto;html=1;exitX=0.25;exitY=1;exitDx=0;exitDy=0;fontColor=#000000;" parent="1" source="_0PlHYa_JAHvjLPgEeFG-126" target="_0PlHYa_JAHvjLPgEeFG-129" edge="1">
                    <mxGeometry relative="1" as="geometry"/>
                </mxCell>
                <mxCell id="_0PlHYa_JAHvjLPgEeFG-285" style="edgeStyle=orthogonalEdgeStyle;rounded=0;orthogonalLoop=1;jettySize=auto;html=1;exitX=1;exitY=0.5;exitDx=0;exitDy=0;entryX=0;entryY=0.5;entryDx=0;entryDy=0;fontColor=#000000;" parent="1" source="_0PlHYa_JAHvjLPgEeFG-185" target="_0PlHYa_JAHvjLPgEeFG-239" edge="1">
                    <mxGeometry relative="1" as="geometry"/>
                </mxCell>
                <mxCell id="_0PlHYa_JAHvjLPgEeFG-185" value="!Browser" style="swimlane;startSize=40;" parent="1" vertex="1">
                    <mxGeometry x="840" y="700" width="560" height="670" as="geometry"/>
                </mxCell>
                <mxCell id="_0PlHYa_JAHvjLPgEeFG-186" value="" style="rounded=0;whiteSpace=wrap;html=1;gradientColor=#ffffff;glass=0;shadow=0;" parent="_0PlHYa_JAHvjLPgEeFG-185" vertex="1">
                    <mxGeometry y="40" width="560" height="600" as="geometry"/>
                </mxCell>
                <mxCell id="_0PlHYa_JAHvjLPgEeFG-187" value="&lt;h1&gt;&lt;font style=&quot;font-size: 22px&quot;&gt;TITLE&lt;/font&gt;&lt;/h1&gt;" style="rounded=0;whiteSpace=wrap;html=1;shadow=0;glass=0;fontColor=#CCCCCC;fillColor=none;gradientColor=#ffffff;sketch=0;dashed=1;" parent="_0PlHYa_JAHvjLPgEeFG-185" vertex="1">
                    <mxGeometry x="30" y="60" width="70" height="30" as="geometry"/>
                </mxCell>
                <mxCell id="_0PlHYa_JAHvjLPgEeFG-188" value="" style="group" parent="_0PlHYa_JAHvjLPgEeFG-185" vertex="1" connectable="0">
                    <mxGeometry x="140" y="60" width="300" height="30" as="geometry"/>
                </mxCell>
                <mxCell id="_0PlHYa_JAHvjLPgEeFG-189" value="" style="rounded=1;whiteSpace=wrap;html=1;shadow=1;" parent="_0PlHYa_JAHvjLPgEeFG-188" vertex="1">
                    <mxGeometry width="300" height="30" as="geometry"/>
                </mxCell>
                <mxCell id="_0PlHYa_JAHvjLPgEeFG-190" value="...type in field to begin search" style="rounded=0;whiteSpace=wrap;html=1;align=right;" parent="_0PlHYa_JAHvjLPgEeFG-188" vertex="1">
                    <mxGeometry x="10" y="10" width="190" height="10" as="geometry"/>
                </mxCell>
                <mxCell id="_0PlHYa_JAHvjLPgEeFG-191" value="Discover" style="rounded=1;whiteSpace=wrap;html=1;" parent="_0PlHYa_JAHvjLPgEeFG-188" vertex="1">
                    <mxGeometry x="210" y="10" width="70" height="10" as="geometry"/>
                </mxCell>
                <mxCell id="_0PlHYa_JAHvjLPgEeFG-192" value="" style="rounded=0;whiteSpace=wrap;html=1;shadow=0;glass=0;dashed=1;sketch=0;fontColor=#CCCCCC;fillColor=#E6E6E6;gradientColor=#ffffff;gradientDirection=north;" parent="_0PlHYa_JAHvjLPgEeFG-185" vertex="1">
                    <mxGeometry y="600" width="560" height="70" as="geometry"/>
                </mxCell>
                <mxCell id="_0PlHYa_JAHvjLPgEeFG-193" value="Credits" style="rounded=0;whiteSpace=wrap;html=1;shadow=0;glass=0;dashed=1;sketch=0;fontColor=#CCCCCC;fillColor=none;gradientColor=#ffffff;gradientDirection=north;strokeColor=none;align=right;" parent="_0PlHYa_JAHvjLPgEeFG-185" vertex="1">
                    <mxGeometry x="30" y="640" width="500" height="20" as="geometry"/>
                </mxCell>
                <mxCell id="_0PlHYa_JAHvjLPgEeFG-194" value="" style="rounded=0;whiteSpace=wrap;html=1;shadow=0;glass=0;sketch=0;fontColor=#000000;strokeColor=default;fillColor=default;gradientColor=none;gradientDirection=north;" parent="_0PlHYa_JAHvjLPgEeFG-185" vertex="1">
                    <mxGeometry x="10" y="160" width="540" height="420" as="geometry"/>
                </mxCell>
                <mxCell id="_0PlHYa_JAHvjLPgEeFG-195" value="&amp;nbsp; Mars: results ..." style="rounded=0;whiteSpace=wrap;html=1;shadow=0;glass=0;sketch=0;fontColor=#000000;strokeColor=default;fillColor=default;gradientColor=none;gradientDirection=north;align=left;" parent="_0PlHYa_JAHvjLPgEeFG-185" vertex="1">
                    <mxGeometry x="30" y="120" width="490" height="30" as="geometry"/>
                </mxCell>
                <mxCell id="_0PlHYa_JAHvjLPgEeFG-196" value="" style="group" parent="_0PlHYa_JAHvjLPgEeFG-185" vertex="1" connectable="0">
                    <mxGeometry x="40" y="170" width="510" height="350" as="geometry"/>
                </mxCell>
                <mxCell id="_0PlHYa_JAHvjLPgEeFG-197" value="" style="rounded=0;whiteSpace=wrap;html=1;shadow=0;glass=0;sketch=0;fontColor=#000000;strokeColor=default;fillColor=default;gradientColor=none;gradientDirection=north;" parent="_0PlHYa_JAHvjLPgEeFG-196" vertex="1">
                    <mxGeometry width="70" height="60" as="geometry"/>
                </mxCell>
                <mxCell id="_0PlHYa_JAHvjLPgEeFG-198" value="" style="rounded=0;whiteSpace=wrap;html=1;shadow=0;glass=0;sketch=0;fontColor=#000000;strokeColor=default;fillColor=default;gradientColor=none;gradientDirection=north;" parent="_0PlHYa_JAHvjLPgEeFG-196" vertex="1">
                    <mxGeometry x="320" width="70" height="60" as="geometry"/>
                </mxCell>
                <mxCell id="_0PlHYa_JAHvjLPgEeFG-199" value="" style="rounded=0;whiteSpace=wrap;html=1;shadow=0;glass=0;sketch=0;fontColor=#000000;strokeColor=default;fillColor=default;gradientColor=none;gradientDirection=north;" parent="_0PlHYa_JAHvjLPgEeFG-196" vertex="1">
                    <mxGeometry x="240" width="70" height="60" as="geometry"/>
                </mxCell>
                <mxCell id="_0PlHYa_JAHvjLPgEeFG-200" value="" style="rounded=0;whiteSpace=wrap;html=1;shadow=0;glass=0;sketch=0;fontColor=#000000;strokeColor=default;fillColor=default;gradientColor=none;gradientDirection=north;" parent="_0PlHYa_JAHvjLPgEeFG-196" vertex="1">
                    <mxGeometry x="160" width="70" height="60" as="geometry"/>
                </mxCell>
                <mxCell id="_0PlHYa_JAHvjLPgEeFG-201" value="" style="rounded=0;whiteSpace=wrap;html=1;shadow=0;glass=0;sketch=0;fontColor=#000000;strokeColor=default;fillColor=default;gradientColor=none;gradientDirection=north;" parent="_0PlHYa_JAHvjLPgEeFG-196" vertex="1">
                    <mxGeometry x="80" width="70" height="60" as="geometry"/>
                </mxCell>
                <mxCell id="_0PlHYa_JAHvjLPgEeFG-202" value="" style="rounded=0;whiteSpace=wrap;html=1;shadow=0;glass=0;sketch=0;fontColor=#000000;strokeColor=default;fillColor=default;gradientColor=none;gradientDirection=north;" parent="_0PlHYa_JAHvjLPgEeFG-196" vertex="1">
                    <mxGeometry x="400" width="70" height="60" as="geometry"/>
                </mxCell>
                <mxCell id="_0PlHYa_JAHvjLPgEeFG-203" value="" style="rounded=0;whiteSpace=wrap;html=1;shadow=0;glass=0;sketch=0;fontColor=#000000;strokeColor=default;fillColor=default;gradientColor=none;gradientDirection=north;" parent="_0PlHYa_JAHvjLPgEeFG-196" vertex="1">
                    <mxGeometry x="490" y="-10" width="20" height="360" as="geometry"/>
                </mxCell>
                <mxCell id="_0PlHYa_JAHvjLPgEeFG-236" value="" style="line;strokeWidth=2;html=1;shadow=1;glass=0;sketch=0;fontColor=#000000;fillColor=default;gradientColor=none;gradientDirection=north;" parent="_0PlHYa_JAHvjLPgEeFG-196" vertex="1">
                    <mxGeometry y="140" width="470" height="10" as="geometry"/>
                </mxCell>
                <mxCell id="_0PlHYa_JAHvjLPgEeFG-237" value="" style="line;strokeWidth=2;html=1;shadow=1;glass=0;sketch=0;fontColor=#000000;fillColor=default;gradientColor=none;gradientDirection=north;" parent="_0PlHYa_JAHvjLPgEeFG-196" vertex="1">
                    <mxGeometry y="190" width="470" height="10" as="geometry"/>
                </mxCell>
                <mxCell id="_0PlHYa_JAHvjLPgEeFG-238" value="Highlight selection and Expanded info on selection" style="rounded=0;whiteSpace=wrap;html=1;shadow=1;glass=0;sketch=0;fontColor=#000000;strokeColor=default;fillColor=none;gradientColor=none;gradientDirection=north;dashed=1;" parent="_0PlHYa_JAHvjLPgEeFG-196" vertex="1">
                    <mxGeometry y="155" width="470" height="30" as="geometry"/>
                </mxCell>
                <mxCell id="_0PlHYa_JAHvjLPgEeFG-211" value="" style="group" parent="_0PlHYa_JAHvjLPgEeFG-185" vertex="1" connectable="0">
                    <mxGeometry x="40" y="240" width="470" height="70" as="geometry"/>
                </mxCell>
                <mxCell id="_0PlHYa_JAHvjLPgEeFG-212" value="" style="rounded=0;whiteSpace=wrap;html=1;shadow=0;glass=0;sketch=0;fontColor=#000000;strokeColor=default;fillColor=default;gradientColor=none;gradientDirection=north;" parent="_0PlHYa_JAHvjLPgEeFG-211" vertex="1">
                    <mxGeometry width="70" height="60" as="geometry"/>
                </mxCell>
                <mxCell id="_0PlHYa_JAHvjLPgEeFG-213" value="" style="rounded=0;whiteSpace=wrap;html=1;shadow=0;glass=0;sketch=0;fontColor=#000000;strokeColor=default;fillColor=default;gradientColor=none;gradientDirection=north;" parent="_0PlHYa_JAHvjLPgEeFG-211" vertex="1">
                    <mxGeometry x="320" width="70" height="60" as="geometry"/>
                </mxCell>
                <mxCell id="_0PlHYa_JAHvjLPgEeFG-214" value="" style="rounded=0;whiteSpace=wrap;html=1;shadow=0;glass=0;sketch=0;fontColor=#000000;strokeColor=default;fillColor=default;gradientColor=none;gradientDirection=north;" parent="_0PlHYa_JAHvjLPgEeFG-211" vertex="1">
                    <mxGeometry x="240" width="70" height="60" as="geometry"/>
                </mxCell>
                <mxCell id="_0PlHYa_JAHvjLPgEeFG-215" value="" style="rounded=0;whiteSpace=wrap;html=1;shadow=1;glass=0;sketch=0;fontColor=#000000;strokeColor=default;fillColor=default;gradientColor=none;gradientDirection=north;" parent="_0PlHYa_JAHvjLPgEeFG-211" vertex="1">
                    <mxGeometry x="160" width="70" height="60" as="geometry"/>
                </mxCell>
                <mxCell id="_0PlHYa_JAHvjLPgEeFG-216" value="" style="rounded=0;whiteSpace=wrap;html=1;shadow=0;glass=0;sketch=0;fontColor=#000000;strokeColor=default;fillColor=default;gradientColor=none;gradientDirection=north;" parent="_0PlHYa_JAHvjLPgEeFG-211" vertex="1">
                    <mxGeometry x="80" width="70" height="60" as="geometry"/>
                </mxCell>
                <mxCell id="_0PlHYa_JAHvjLPgEeFG-217" value="" style="rounded=0;whiteSpace=wrap;html=1;shadow=0;glass=0;sketch=0;fontColor=#000000;strokeColor=default;fillColor=default;gradientColor=none;gradientDirection=north;" parent="_0PlHYa_JAHvjLPgEeFG-211" vertex="1">
                    <mxGeometry x="400" width="70" height="60" as="geometry"/>
                </mxCell>
                <mxCell id="_0PlHYa_JAHvjLPgEeFG-235" value="" style="html=1;shadow=0;dashed=0;align=center;verticalAlign=middle;shape=mxgraph.arrows2.arrow;dy=0.6;dx=40;flipH=1;notch=0;glass=0;sketch=0;fontColor=#000000;strokeColor=default;fillColor=default;gradientColor=none;gradientDirection=north;" parent="_0PlHYa_JAHvjLPgEeFG-211" vertex="1">
                    <mxGeometry x="225" width="100" height="70" as="geometry"/>
                </mxCell>
                <mxCell id="_0PlHYa_JAHvjLPgEeFG-218" value="" style="group" parent="_0PlHYa_JAHvjLPgEeFG-185" vertex="1" connectable="0">
                    <mxGeometry x="40" y="380" width="470" height="60" as="geometry"/>
                </mxCell>
                <mxCell id="_0PlHYa_JAHvjLPgEeFG-219" value="" style="rounded=0;whiteSpace=wrap;html=1;shadow=0;glass=0;sketch=0;fontColor=#000000;strokeColor=default;fillColor=default;gradientColor=none;gradientDirection=north;" parent="_0PlHYa_JAHvjLPgEeFG-218" vertex="1">
                    <mxGeometry width="70" height="60" as="geometry"/>
                </mxCell>
                <mxCell id="_0PlHYa_JAHvjLPgEeFG-220" value="" style="rounded=0;whiteSpace=wrap;html=1;shadow=0;glass=0;sketch=0;fontColor=#000000;strokeColor=default;fillColor=default;gradientColor=none;gradientDirection=north;" parent="_0PlHYa_JAHvjLPgEeFG-218" vertex="1">
                    <mxGeometry x="320" width="70" height="60" as="geometry"/>
                </mxCell>
                <mxCell id="_0PlHYa_JAHvjLPgEeFG-221" value="" style="rounded=0;whiteSpace=wrap;html=1;shadow=0;glass=0;sketch=0;fontColor=#000000;strokeColor=default;fillColor=default;gradientColor=none;gradientDirection=north;" parent="_0PlHYa_JAHvjLPgEeFG-218" vertex="1">
                    <mxGeometry x="240" width="70" height="60" as="geometry"/>
                </mxCell>
                <mxCell id="_0PlHYa_JAHvjLPgEeFG-222" value="" style="rounded=0;whiteSpace=wrap;html=1;shadow=0;glass=0;sketch=0;fontColor=#000000;strokeColor=default;fillColor=default;gradientColor=none;gradientDirection=north;" parent="_0PlHYa_JAHvjLPgEeFG-218" vertex="1">
                    <mxGeometry x="160" width="70" height="60" as="geometry"/>
                </mxCell>
                <mxCell id="_0PlHYa_JAHvjLPgEeFG-223" value="" style="rounded=0;whiteSpace=wrap;html=1;shadow=0;glass=0;sketch=0;fontColor=#000000;strokeColor=default;fillColor=default;gradientColor=none;gradientDirection=north;" parent="_0PlHYa_JAHvjLPgEeFG-218" vertex="1">
                    <mxGeometry x="80" width="70" height="60" as="geometry"/>
                </mxCell>
                <mxCell id="_0PlHYa_JAHvjLPgEeFG-224" value="" style="rounded=0;whiteSpace=wrap;html=1;shadow=0;glass=0;sketch=0;fontColor=#000000;strokeColor=default;fillColor=default;gradientColor=none;gradientDirection=north;" parent="_0PlHYa_JAHvjLPgEeFG-218" vertex="1">
                    <mxGeometry x="400" width="70" height="60" as="geometry"/>
                </mxCell>
                <mxCell id="_0PlHYa_JAHvjLPgEeFG-225" value="" style="group" parent="_0PlHYa_JAHvjLPgEeFG-185" vertex="1" connectable="0">
                    <mxGeometry x="40" y="450" width="470" height="60" as="geometry"/>
                </mxCell>
                <mxCell id="_0PlHYa_JAHvjLPgEeFG-226" value="" style="rounded=0;whiteSpace=wrap;html=1;shadow=0;glass=0;sketch=0;fontColor=#000000;strokeColor=default;fillColor=default;gradientColor=none;gradientDirection=north;" parent="_0PlHYa_JAHvjLPgEeFG-225" vertex="1">
                    <mxGeometry width="70" height="60" as="geometry"/>
                </mxCell>
                <mxCell id="_0PlHYa_JAHvjLPgEeFG-227" value="" style="rounded=0;whiteSpace=wrap;html=1;shadow=0;glass=0;sketch=0;fontColor=#000000;strokeColor=default;fillColor=default;gradientColor=none;gradientDirection=north;" parent="_0PlHYa_JAHvjLPgEeFG-225" vertex="1">
                    <mxGeometry x="320" width="70" height="60" as="geometry"/>
                </mxCell>
                <mxCell id="_0PlHYa_JAHvjLPgEeFG-228" value="" style="rounded=0;whiteSpace=wrap;html=1;shadow=0;glass=0;sketch=0;fontColor=#000000;strokeColor=default;fillColor=default;gradientColor=none;gradientDirection=north;" parent="_0PlHYa_JAHvjLPgEeFG-225" vertex="1">
                    <mxGeometry x="240" width="70" height="60" as="geometry"/>
                </mxCell>
                <mxCell id="_0PlHYa_JAHvjLPgEeFG-229" value="" style="rounded=0;whiteSpace=wrap;html=1;shadow=0;glass=0;sketch=0;fontColor=#000000;strokeColor=default;fillColor=default;gradientColor=none;gradientDirection=north;" parent="_0PlHYa_JAHvjLPgEeFG-225" vertex="1">
                    <mxGeometry x="160" width="70" height="60" as="geometry"/>
                </mxCell>
                <mxCell id="_0PlHYa_JAHvjLPgEeFG-230" value="" style="rounded=0;whiteSpace=wrap;html=1;shadow=0;glass=0;sketch=0;fontColor=#000000;strokeColor=default;fillColor=default;gradientColor=none;gradientDirection=north;" parent="_0PlHYa_JAHvjLPgEeFG-225" vertex="1">
                    <mxGeometry x="80" width="70" height="60" as="geometry"/>
                </mxCell>
                <mxCell id="_0PlHYa_JAHvjLPgEeFG-231" value="" style="rounded=0;whiteSpace=wrap;html=1;shadow=0;glass=0;sketch=0;fontColor=#000000;strokeColor=default;fillColor=default;gradientColor=none;gradientDirection=north;" parent="_0PlHYa_JAHvjLPgEeFG-225" vertex="1">
                    <mxGeometry x="400" width="70" height="60" as="geometry"/>
                </mxCell>
                <mxCell id="_0PlHYa_JAHvjLPgEeFG-232" value="PAGINATION" style="rounded=0;whiteSpace=wrap;html=1;shadow=0;glass=0;sketch=0;fontColor=#000000;strokeColor=default;fillColor=none;gradientColor=none;gradientDirection=north;dashed=1;" parent="_0PlHYa_JAHvjLPgEeFG-185" vertex="1">
                    <mxGeometry x="20" y="540" width="510" height="30" as="geometry"/>
                </mxCell>
                <mxCell id="_0PlHYa_JAHvjLPgEeFG-233" value="" style="endArrow=none;html=1;rounded=0;fontColor=#000000;exitX=0;exitY=0;exitDx=0;exitDy=0;entryX=1;entryY=0;entryDx=0;entryDy=0;" parent="_0PlHYa_JAHvjLPgEeFG-185" source="_0PlHYa_JAHvjLPgEeFG-232" target="_0PlHYa_JAHvjLPgEeFG-232" edge="1">
                    <mxGeometry width="50" height="50" relative="1" as="geometry">
                        <mxPoint x="350" y="380" as="sourcePoint"/>
                        <mxPoint x="530" y="530" as="targetPoint"/>
                        <Array as="points"/>
                    </mxGeometry>
                </mxCell>
                <mxCell id="_0PlHYa_JAHvjLPgEeFG-234" value="" style="edgeStyle=orthogonalEdgeStyle;rounded=0;orthogonalLoop=1;jettySize=auto;html=1;fontColor=#000000;entryX=0;entryY=0.5;entryDx=0;entryDy=0;" parent="1" source="_0PlHYa_JAHvjLPgEeFG-130" target="_0PlHYa_JAHvjLPgEeFG-186" edge="1">
                    <mxGeometry relative="1" as="geometry"/>
                </mxCell>
                <mxCell id="_0PlHYa_JAHvjLPgEeFG-239" value="!Browser" style="swimlane;startSize=40;" parent="1" vertex="1">
                    <mxGeometry x="1480" y="700" width="560" height="670" as="geometry"/>
                </mxCell>
                <mxCell id="_0PlHYa_JAHvjLPgEeFG-240" value="" style="rounded=0;whiteSpace=wrap;html=1;gradientColor=#ffffff;glass=0;shadow=0;" parent="_0PlHYa_JAHvjLPgEeFG-239" vertex="1">
                    <mxGeometry y="40" width="560" height="600" as="geometry"/>
                </mxCell>
                <mxCell id="_0PlHYa_JAHvjLPgEeFG-241" value="&lt;h1&gt;&lt;font style=&quot;font-size: 22px&quot;&gt;TITLE&lt;/font&gt;&lt;/h1&gt;" style="rounded=0;whiteSpace=wrap;html=1;shadow=0;glass=0;fontColor=#CCCCCC;fillColor=none;gradientColor=#ffffff;sketch=0;dashed=1;" parent="_0PlHYa_JAHvjLPgEeFG-239" vertex="1">
                    <mxGeometry x="30" y="60" width="70" height="30" as="geometry"/>
                </mxCell>
                <mxCell id="_0PlHYa_JAHvjLPgEeFG-242" value="" style="group" parent="_0PlHYa_JAHvjLPgEeFG-239" vertex="1" connectable="0">
                    <mxGeometry x="140" y="60" width="300" height="30" as="geometry"/>
                </mxCell>
                <mxCell id="_0PlHYa_JAHvjLPgEeFG-243" value="" style="rounded=1;whiteSpace=wrap;html=1;shadow=1;" parent="_0PlHYa_JAHvjLPgEeFG-242" vertex="1">
                    <mxGeometry width="300" height="30" as="geometry"/>
                </mxCell>
                <mxCell id="_0PlHYa_JAHvjLPgEeFG-244" value="...type in field to begin search" style="rounded=0;whiteSpace=wrap;html=1;align=right;" parent="_0PlHYa_JAHvjLPgEeFG-242" vertex="1">
                    <mxGeometry x="10" y="10" width="190" height="10" as="geometry"/>
                </mxCell>
                <mxCell id="_0PlHYa_JAHvjLPgEeFG-245" value="Discover" style="rounded=1;whiteSpace=wrap;html=1;" parent="_0PlHYa_JAHvjLPgEeFG-242" vertex="1">
                    <mxGeometry x="210" y="10" width="70" height="10" as="geometry"/>
                </mxCell>
                <mxCell id="_0PlHYa_JAHvjLPgEeFG-246" value="" style="rounded=0;whiteSpace=wrap;html=1;shadow=0;glass=0;dashed=1;sketch=0;fontColor=#CCCCCC;fillColor=#E6E6E6;gradientColor=#ffffff;gradientDirection=north;" parent="_0PlHYa_JAHvjLPgEeFG-239" vertex="1">
                    <mxGeometry y="600" width="560" height="70" as="geometry"/>
                </mxCell>
                <mxCell id="_0PlHYa_JAHvjLPgEeFG-247" value="Credits" style="rounded=0;whiteSpace=wrap;html=1;shadow=0;glass=0;dashed=1;sketch=0;fontColor=#CCCCCC;fillColor=none;gradientColor=#ffffff;gradientDirection=north;strokeColor=none;align=right;" parent="_0PlHYa_JAHvjLPgEeFG-239" vertex="1">
                    <mxGeometry x="30" y="640" width="500" height="20" as="geometry"/>
                </mxCell>
                <mxCell id="_0PlHYa_JAHvjLPgEeFG-248" value="" style="rounded=0;whiteSpace=wrap;html=1;shadow=0;glass=0;sketch=0;fontColor=#000000;strokeColor=default;fillColor=default;gradientColor=none;gradientDirection=north;" parent="_0PlHYa_JAHvjLPgEeFG-239" vertex="1">
                    <mxGeometry x="10" y="160" width="540" height="420" as="geometry"/>
                </mxCell>
                <mxCell id="_0PlHYa_JAHvjLPgEeFG-249" value="&amp;nbsp; Mars: results ..." style="rounded=0;whiteSpace=wrap;html=1;shadow=0;glass=0;sketch=0;fontColor=#000000;strokeColor=default;fillColor=default;gradientColor=none;gradientDirection=north;align=left;" parent="_0PlHYa_JAHvjLPgEeFG-239" vertex="1">
                    <mxGeometry x="30" y="120" width="490" height="30" as="geometry"/>
                </mxCell>
                <mxCell id="_0PlHYa_JAHvjLPgEeFG-250" value="" style="group" parent="_0PlHYa_JAHvjLPgEeFG-239" vertex="1" connectable="0">
                    <mxGeometry x="40" y="170" width="510" height="350" as="geometry"/>
                </mxCell>
                <mxCell id="_0PlHYa_JAHvjLPgEeFG-251" value="" style="rounded=0;whiteSpace=wrap;html=1;shadow=0;glass=0;sketch=0;fontColor=#000000;strokeColor=default;fillColor=default;gradientColor=none;gradientDirection=north;" parent="_0PlHYa_JAHvjLPgEeFG-250" vertex="1">
                    <mxGeometry width="70" height="60" as="geometry"/>
                </mxCell>
                <mxCell id="_0PlHYa_JAHvjLPgEeFG-252" value="" style="rounded=0;whiteSpace=wrap;html=1;shadow=0;glass=0;sketch=0;fontColor=#000000;strokeColor=default;fillColor=default;gradientColor=none;gradientDirection=north;" parent="_0PlHYa_JAHvjLPgEeFG-250" vertex="1">
                    <mxGeometry x="320" width="70" height="60" as="geometry"/>
                </mxCell>
                <mxCell id="_0PlHYa_JAHvjLPgEeFG-253" value="" style="rounded=0;whiteSpace=wrap;html=1;shadow=0;glass=0;sketch=0;fontColor=#000000;strokeColor=default;fillColor=default;gradientColor=none;gradientDirection=north;" parent="_0PlHYa_JAHvjLPgEeFG-250" vertex="1">
                    <mxGeometry x="240" width="70" height="60" as="geometry"/>
                </mxCell>
                <mxCell id="_0PlHYa_JAHvjLPgEeFG-254" value="" style="rounded=0;whiteSpace=wrap;html=1;shadow=0;glass=0;sketch=0;fontColor=#000000;strokeColor=default;fillColor=default;gradientColor=none;gradientDirection=north;" parent="_0PlHYa_JAHvjLPgEeFG-250" vertex="1">
                    <mxGeometry x="160" width="70" height="60" as="geometry"/>
                </mxCell>
                <mxCell id="_0PlHYa_JAHvjLPgEeFG-255" value="" style="rounded=0;whiteSpace=wrap;html=1;shadow=0;glass=0;sketch=0;fontColor=#000000;strokeColor=default;fillColor=default;gradientColor=none;gradientDirection=north;" parent="_0PlHYa_JAHvjLPgEeFG-250" vertex="1">
                    <mxGeometry x="80" width="70" height="60" as="geometry"/>
                </mxCell>
                <mxCell id="_0PlHYa_JAHvjLPgEeFG-256" value="" style="rounded=0;whiteSpace=wrap;html=1;shadow=0;glass=0;sketch=0;fontColor=#000000;strokeColor=default;fillColor=default;gradientColor=none;gradientDirection=north;" parent="_0PlHYa_JAHvjLPgEeFG-250" vertex="1">
                    <mxGeometry x="400" width="70" height="60" as="geometry"/>
                </mxCell>
                <mxCell id="_0PlHYa_JAHvjLPgEeFG-257" value="" style="rounded=0;whiteSpace=wrap;html=1;shadow=0;glass=0;sketch=0;fontColor=#000000;strokeColor=default;fillColor=default;gradientColor=none;gradientDirection=north;" parent="_0PlHYa_JAHvjLPgEeFG-250" vertex="1">
                    <mxGeometry x="490" y="-10" width="20" height="360" as="geometry"/>
                </mxCell>
                <mxCell id="_0PlHYa_JAHvjLPgEeFG-258" value="" style="line;strokeWidth=2;html=1;shadow=1;glass=0;sketch=0;fontColor=#000000;fillColor=default;gradientColor=none;gradientDirection=north;" parent="_0PlHYa_JAHvjLPgEeFG-250" vertex="1">
                    <mxGeometry y="140" width="470" height="10" as="geometry"/>
                </mxCell>
                <mxCell id="_0PlHYa_JAHvjLPgEeFG-259" value="" style="line;strokeWidth=2;html=1;shadow=1;glass=0;sketch=0;fontColor=#000000;fillColor=default;gradientColor=none;gradientDirection=north;" parent="_0PlHYa_JAHvjLPgEeFG-250" vertex="1">
                    <mxGeometry y="190" width="470" height="10" as="geometry"/>
                </mxCell>
                <mxCell id="_0PlHYa_JAHvjLPgEeFG-260" value="Highlight selection and Expanded info on selection" style="rounded=0;whiteSpace=wrap;html=1;shadow=1;glass=0;sketch=0;fontColor=#000000;strokeColor=default;fillColor=none;gradientColor=none;gradientDirection=north;dashed=1;" parent="_0PlHYa_JAHvjLPgEeFG-250" vertex="1">
                    <mxGeometry y="155" width="470" height="30" as="geometry"/>
                </mxCell>
                <mxCell id="_0PlHYa_JAHvjLPgEeFG-286" value="" style="rounded=0;whiteSpace=wrap;html=1;shadow=1;glass=0;sketch=0;fontColor=#000000;strokeColor=default;fillColor=none;gradientColor=none;gradientDirection=north;" parent="_0PlHYa_JAHvjLPgEeFG-250" vertex="1">
                    <mxGeometry x="-25" y="120" width="515" height="110" as="geometry"/>
                </mxCell>
                <mxCell id="_0PlHYa_JAHvjLPgEeFG-261" value="" style="group" parent="_0PlHYa_JAHvjLPgEeFG-239" vertex="1" connectable="0">
                    <mxGeometry x="40" y="240" width="470" height="70" as="geometry"/>
                </mxCell>
                <mxCell id="_0PlHYa_JAHvjLPgEeFG-262" value="" style="rounded=0;whiteSpace=wrap;html=1;shadow=0;glass=0;sketch=0;fontColor=#000000;strokeColor=default;fillColor=default;gradientColor=none;gradientDirection=north;" parent="_0PlHYa_JAHvjLPgEeFG-261" vertex="1">
                    <mxGeometry width="70" height="60" as="geometry"/>
                </mxCell>
                <mxCell id="_0PlHYa_JAHvjLPgEeFG-263" value="" style="rounded=0;whiteSpace=wrap;html=1;shadow=0;glass=0;sketch=0;fontColor=#000000;strokeColor=default;fillColor=default;gradientColor=none;gradientDirection=north;" parent="_0PlHYa_JAHvjLPgEeFG-261" vertex="1">
                    <mxGeometry x="320" width="70" height="60" as="geometry"/>
                </mxCell>
                <mxCell id="_0PlHYa_JAHvjLPgEeFG-264" value="" style="rounded=0;whiteSpace=wrap;html=1;shadow=0;glass=0;sketch=0;fontColor=#000000;strokeColor=default;fillColor=default;gradientColor=none;gradientDirection=north;" parent="_0PlHYa_JAHvjLPgEeFG-261" vertex="1">
                    <mxGeometry x="240" width="70" height="60" as="geometry"/>
                </mxCell>
                <mxCell id="_0PlHYa_JAHvjLPgEeFG-265" value="" style="rounded=0;whiteSpace=wrap;html=1;shadow=1;glass=0;sketch=0;fontColor=#000000;strokeColor=default;fillColor=default;gradientColor=none;gradientDirection=north;" parent="_0PlHYa_JAHvjLPgEeFG-261" vertex="1">
                    <mxGeometry x="160" width="70" height="60" as="geometry"/>
                </mxCell>
                <mxCell id="_0PlHYa_JAHvjLPgEeFG-266" value="" style="rounded=0;whiteSpace=wrap;html=1;shadow=0;glass=0;sketch=0;fontColor=#000000;strokeColor=default;fillColor=default;gradientColor=none;gradientDirection=north;" parent="_0PlHYa_JAHvjLPgEeFG-261" vertex="1">
                    <mxGeometry x="80" width="70" height="60" as="geometry"/>
                </mxCell>
                <mxCell id="_0PlHYa_JAHvjLPgEeFG-267" value="" style="rounded=0;whiteSpace=wrap;html=1;shadow=0;glass=0;sketch=0;fontColor=#000000;strokeColor=default;fillColor=default;gradientColor=none;gradientDirection=north;" parent="_0PlHYa_JAHvjLPgEeFG-261" vertex="1">
                    <mxGeometry x="400" width="70" height="60" as="geometry"/>
                </mxCell>
                <mxCell id="_0PlHYa_JAHvjLPgEeFG-268" value="" style="html=1;shadow=0;dashed=0;align=center;verticalAlign=middle;shape=mxgraph.arrows2.arrow;dy=0.6;dx=40;flipH=1;notch=0;glass=0;sketch=0;fontColor=#000000;strokeColor=default;fillColor=default;gradientColor=none;gradientDirection=north;" parent="_0PlHYa_JAHvjLPgEeFG-261" vertex="1">
                    <mxGeometry x="225" width="100" height="70" as="geometry"/>
                </mxCell>
                <mxCell id="_0PlHYa_JAHvjLPgEeFG-269" value="" style="group" parent="_0PlHYa_JAHvjLPgEeFG-239" vertex="1" connectable="0">
                    <mxGeometry x="40" y="380" width="470" height="60" as="geometry"/>
                </mxCell>
                <mxCell id="_0PlHYa_JAHvjLPgEeFG-270" value="" style="rounded=0;whiteSpace=wrap;html=1;shadow=0;glass=0;sketch=0;fontColor=#000000;strokeColor=default;fillColor=default;gradientColor=none;gradientDirection=north;" parent="_0PlHYa_JAHvjLPgEeFG-269" vertex="1">
                    <mxGeometry width="70" height="60" as="geometry"/>
                </mxCell>
                <mxCell id="_0PlHYa_JAHvjLPgEeFG-271" value="" style="rounded=0;whiteSpace=wrap;html=1;shadow=0;glass=0;sketch=0;fontColor=#000000;strokeColor=default;fillColor=default;gradientColor=none;gradientDirection=north;" parent="_0PlHYa_JAHvjLPgEeFG-269" vertex="1">
                    <mxGeometry x="320" width="70" height="60" as="geometry"/>
                </mxCell>
                <mxCell id="_0PlHYa_JAHvjLPgEeFG-272" value="" style="rounded=0;whiteSpace=wrap;html=1;shadow=0;glass=0;sketch=0;fontColor=#000000;strokeColor=default;fillColor=default;gradientColor=none;gradientDirection=north;" parent="_0PlHYa_JAHvjLPgEeFG-269" vertex="1">
                    <mxGeometry x="240" width="70" height="60" as="geometry"/>
                </mxCell>
                <mxCell id="_0PlHYa_JAHvjLPgEeFG-273" value="" style="rounded=0;whiteSpace=wrap;html=1;shadow=0;glass=0;sketch=0;fontColor=#000000;strokeColor=default;fillColor=default;gradientColor=none;gradientDirection=north;" parent="_0PlHYa_JAHvjLPgEeFG-269" vertex="1">
                    <mxGeometry x="160" width="70" height="60" as="geometry"/>
                </mxCell>
                <mxCell id="_0PlHYa_JAHvjLPgEeFG-274" value="" style="rounded=0;whiteSpace=wrap;html=1;shadow=0;glass=0;sketch=0;fontColor=#000000;strokeColor=default;fillColor=default;gradientColor=none;gradientDirection=north;" parent="_0PlHYa_JAHvjLPgEeFG-269" vertex="1">
                    <mxGeometry x="80" width="70" height="60" as="geometry"/>
                </mxCell>
                <mxCell id="_0PlHYa_JAHvjLPgEeFG-275" value="" style="rounded=0;whiteSpace=wrap;html=1;shadow=0;glass=0;sketch=0;fontColor=#000000;strokeColor=default;fillColor=default;gradientColor=none;gradientDirection=north;" parent="_0PlHYa_JAHvjLPgEeFG-269" vertex="1">
                    <mxGeometry x="400" width="70" height="60" as="geometry"/>
                </mxCell>
                <mxCell id="_0PlHYa_JAHvjLPgEeFG-276" value="" style="group" parent="_0PlHYa_JAHvjLPgEeFG-239" vertex="1" connectable="0">
                    <mxGeometry x="40" y="450" width="470" height="60" as="geometry"/>
                </mxCell>
                <mxCell id="_0PlHYa_JAHvjLPgEeFG-277" value="" style="rounded=0;whiteSpace=wrap;html=1;shadow=0;glass=0;sketch=0;fontColor=#000000;strokeColor=default;fillColor=default;gradientColor=none;gradientDirection=north;" parent="_0PlHYa_JAHvjLPgEeFG-276" vertex="1">
                    <mxGeometry width="70" height="60" as="geometry"/>
                </mxCell>
                <mxCell id="_0PlHYa_JAHvjLPgEeFG-278" value="" style="rounded=0;whiteSpace=wrap;html=1;shadow=0;glass=0;sketch=0;fontColor=#000000;strokeColor=default;fillColor=default;gradientColor=none;gradientDirection=north;" parent="_0PlHYa_JAHvjLPgEeFG-276" vertex="1">
                    <mxGeometry x="320" width="70" height="60" as="geometry"/>
                </mxCell>
                <mxCell id="_0PlHYa_JAHvjLPgEeFG-279" value="" style="rounded=0;whiteSpace=wrap;html=1;shadow=0;glass=0;sketch=0;fontColor=#000000;strokeColor=default;fillColor=default;gradientColor=none;gradientDirection=north;" parent="_0PlHYa_JAHvjLPgEeFG-276" vertex="1">
                    <mxGeometry x="240" width="70" height="60" as="geometry"/>
                </mxCell>
                <mxCell id="_0PlHYa_JAHvjLPgEeFG-280" value="" style="rounded=0;whiteSpace=wrap;html=1;shadow=0;glass=0;sketch=0;fontColor=#000000;strokeColor=default;fillColor=default;gradientColor=none;gradientDirection=north;" parent="_0PlHYa_JAHvjLPgEeFG-276" vertex="1">
                    <mxGeometry x="160" width="70" height="60" as="geometry"/>
                </mxCell>
                <mxCell id="_0PlHYa_JAHvjLPgEeFG-281" value="" style="rounded=0;whiteSpace=wrap;html=1;shadow=0;glass=0;sketch=0;fontColor=#000000;strokeColor=default;fillColor=default;gradientColor=none;gradientDirection=north;" parent="_0PlHYa_JAHvjLPgEeFG-276" vertex="1">
                    <mxGeometry x="80" width="70" height="60" as="geometry"/>
                </mxCell>
                <mxCell id="_0PlHYa_JAHvjLPgEeFG-282" value="" style="rounded=0;whiteSpace=wrap;html=1;shadow=0;glass=0;sketch=0;fontColor=#000000;strokeColor=default;fillColor=default;gradientColor=none;gradientDirection=north;" parent="_0PlHYa_JAHvjLPgEeFG-276" vertex="1">
                    <mxGeometry x="400" width="70" height="60" as="geometry"/>
                </mxCell>
                <mxCell id="_0PlHYa_JAHvjLPgEeFG-283" value="PAGINATION" style="rounded=0;whiteSpace=wrap;html=1;shadow=0;glass=0;sketch=0;fontColor=#000000;strokeColor=default;fillColor=none;gradientColor=none;gradientDirection=north;dashed=1;" parent="_0PlHYa_JAHvjLPgEeFG-239" vertex="1">
                    <mxGeometry x="20" y="540" width="510" height="30" as="geometry"/>
                </mxCell>
                <mxCell id="_0PlHYa_JAHvjLPgEeFG-284" value="" style="endArrow=none;html=1;rounded=0;fontColor=#000000;exitX=0;exitY=0;exitDx=0;exitDy=0;entryX=1;entryY=0;entryDx=0;entryDy=0;" parent="_0PlHYa_JAHvjLPgEeFG-239" source="_0PlHYa_JAHvjLPgEeFG-283" target="_0PlHYa_JAHvjLPgEeFG-283" edge="1">
                    <mxGeometry width="50" height="50" relative="1" as="geometry">
                        <mxPoint x="350" y="380" as="sourcePoint"/>
                        <mxPoint x="530" y="530" as="targetPoint"/>
                        <Array as="points"/>
                    </mxGeometry>
                </mxCell>
                <mxCell id="_0PlHYa_JAHvjLPgEeFG-307" value="" style="group;shadow=0;" parent="1" vertex="1" connectable="0">
                    <mxGeometry x="2190" y="690" width="560" height="350" as="geometry"/>
                </mxCell>
                <mxCell id="_0PlHYa_JAHvjLPgEeFG-288" value="" style="rounded=0;whiteSpace=wrap;html=1;shadow=0;glass=0;sketch=0;fontColor=#000000;strokeColor=default;fillColor=default;gradientColor=none;gradientDirection=north;" parent="_0PlHYa_JAHvjLPgEeFG-307" vertex="1">
                    <mxGeometry width="500" height="350" as="geometry"/>
                </mxCell>
                <mxCell id="_0PlHYa_JAHvjLPgEeFG-289" value="" style="group" parent="_0PlHYa_JAHvjLPgEeFG-307" vertex="1" connectable="0">
                    <mxGeometry x="10" y="10" width="470" height="70" as="geometry"/>
                </mxCell>
                <mxCell id="_0PlHYa_JAHvjLPgEeFG-290" value="" style="rounded=0;whiteSpace=wrap;html=1;shadow=0;glass=0;sketch=0;fontColor=#000000;strokeColor=default;fillColor=default;gradientColor=none;gradientDirection=north;" parent="_0PlHYa_JAHvjLPgEeFG-289" vertex="1">
                    <mxGeometry width="70" height="60" as="geometry"/>
                </mxCell>
                <mxCell id="_0PlHYa_JAHvjLPgEeFG-291" value="" style="rounded=0;whiteSpace=wrap;html=1;shadow=0;glass=0;sketch=0;fontColor=#000000;strokeColor=default;fillColor=default;gradientColor=none;gradientDirection=north;" parent="_0PlHYa_JAHvjLPgEeFG-289" vertex="1">
                    <mxGeometry x="320" width="70" height="60" as="geometry"/>
                </mxCell>
                <mxCell id="_0PlHYa_JAHvjLPgEeFG-292" value="" style="rounded=0;whiteSpace=wrap;html=1;shadow=0;glass=0;sketch=0;fontColor=#000000;strokeColor=default;fillColor=default;gradientColor=none;gradientDirection=north;" parent="_0PlHYa_JAHvjLPgEeFG-289" vertex="1">
                    <mxGeometry x="240" width="70" height="60" as="geometry"/>
                </mxCell>
                <mxCell id="_0PlHYa_JAHvjLPgEeFG-293" value="" style="rounded=0;whiteSpace=wrap;html=1;shadow=1;glass=0;sketch=0;fontColor=#000000;strokeColor=default;fillColor=default;gradientColor=none;gradientDirection=north;" parent="_0PlHYa_JAHvjLPgEeFG-289" vertex="1">
                    <mxGeometry x="160" width="70" height="60" as="geometry"/>
                </mxCell>
                <mxCell id="_0PlHYa_JAHvjLPgEeFG-294" value="" style="rounded=0;whiteSpace=wrap;html=1;shadow=0;glass=0;sketch=0;fontColor=#000000;strokeColor=default;fillColor=default;gradientColor=none;gradientDirection=north;" parent="_0PlHYa_JAHvjLPgEeFG-289" vertex="1">
                    <mxGeometry x="80" width="70" height="60" as="geometry"/>
                </mxCell>
                <mxCell id="_0PlHYa_JAHvjLPgEeFG-295" value="" style="rounded=0;whiteSpace=wrap;html=1;shadow=0;glass=0;sketch=0;fontColor=#000000;strokeColor=default;fillColor=default;gradientColor=none;gradientDirection=north;" parent="_0PlHYa_JAHvjLPgEeFG-289" vertex="1">
                    <mxGeometry x="400" width="70" height="60" as="geometry"/>
                </mxCell>
                <mxCell id="_0PlHYa_JAHvjLPgEeFG-296" value="" style="html=1;shadow=0;dashed=0;align=center;verticalAlign=middle;shape=mxgraph.arrows2.arrow;dy=0.6;dx=40;flipH=1;notch=0;glass=0;sketch=0;fontColor=#000000;strokeColor=default;fillColor=default;gradientColor=none;gradientDirection=north;" parent="_0PlHYa_JAHvjLPgEeFG-289" vertex="1">
                    <mxGeometry x="225" width="100" height="70" as="geometry"/>
                </mxCell>
                <mxCell id="_0PlHYa_JAHvjLPgEeFG-316" value="&lt;font style=&quot;font-size: 12px&quot;&gt;ON SELECT&lt;/font&gt;" style="rounded=0;whiteSpace=wrap;html=1;shadow=1;glass=0;dashed=1;sketch=0;fontSize=14;fontColor=#000000;strokeColor=none;fillColor=none;gradientColor=none;gradientDirection=north;" parent="_0PlHYa_JAHvjLPgEeFG-289" vertex="1">
                    <mxGeometry x="240" y="25" width="80" height="20" as="geometry"/>
                </mxCell>
                <mxCell id="_0PlHYa_JAHvjLPgEeFG-297" value="" style="group" parent="_0PlHYa_JAHvjLPgEeFG-307" vertex="1" connectable="0">
                    <mxGeometry x="20" y="280" width="470" height="60" as="geometry"/>
                </mxCell>
                <mxCell id="_0PlHYa_JAHvjLPgEeFG-298" value="" style="rounded=0;whiteSpace=wrap;html=1;shadow=0;glass=0;sketch=0;fontColor=#000000;strokeColor=default;fillColor=default;gradientColor=none;gradientDirection=north;" parent="_0PlHYa_JAHvjLPgEeFG-297" vertex="1">
                    <mxGeometry width="70" height="60" as="geometry"/>
                </mxCell>
                <mxCell id="_0PlHYa_JAHvjLPgEeFG-299" value="" style="rounded=0;whiteSpace=wrap;html=1;shadow=0;glass=0;sketch=0;fontColor=#000000;strokeColor=default;fillColor=default;gradientColor=none;gradientDirection=north;" parent="_0PlHYa_JAHvjLPgEeFG-297" vertex="1">
                    <mxGeometry x="320" width="70" height="60" as="geometry"/>
                </mxCell>
                <mxCell id="_0PlHYa_JAHvjLPgEeFG-300" value="" style="rounded=0;whiteSpace=wrap;html=1;shadow=0;glass=0;sketch=0;fontColor=#000000;strokeColor=default;fillColor=default;gradientColor=none;gradientDirection=north;" parent="_0PlHYa_JAHvjLPgEeFG-297" vertex="1">
                    <mxGeometry x="240" width="70" height="60" as="geometry"/>
                </mxCell>
                <mxCell id="_0PlHYa_JAHvjLPgEeFG-301" value="" style="rounded=0;whiteSpace=wrap;html=1;shadow=0;glass=0;sketch=0;fontColor=#000000;strokeColor=default;fillColor=default;gradientColor=none;gradientDirection=north;" parent="_0PlHYa_JAHvjLPgEeFG-297" vertex="1">
                    <mxGeometry x="160" width="70" height="60" as="geometry"/>
                </mxCell>
                <mxCell id="_0PlHYa_JAHvjLPgEeFG-302" value="" style="rounded=0;whiteSpace=wrap;html=1;shadow=0;glass=0;sketch=0;fontColor=#000000;strokeColor=default;fillColor=default;gradientColor=none;gradientDirection=north;" parent="_0PlHYa_JAHvjLPgEeFG-297" vertex="1">
                    <mxGeometry x="80" width="70" height="60" as="geometry"/>
                </mxCell>
                <mxCell id="_0PlHYa_JAHvjLPgEeFG-303" value="" style="rounded=0;whiteSpace=wrap;html=1;shadow=0;glass=0;sketch=0;fontColor=#000000;strokeColor=default;fillColor=default;gradientColor=none;gradientDirection=north;" parent="_0PlHYa_JAHvjLPgEeFG-297" vertex="1">
                    <mxGeometry x="400" width="70" height="60" as="geometry"/>
                </mxCell>
                <mxCell id="_0PlHYa_JAHvjLPgEeFG-304" value="" style="endArrow=none;html=1;rounded=0;fontColor=#000000;entryX=1;entryY=0.25;entryDx=0;entryDy=0;exitX=0;exitY=0.25;exitDx=0;exitDy=0;" parent="_0PlHYa_JAHvjLPgEeFG-307" source="_0PlHYa_JAHvjLPgEeFG-288" target="_0PlHYa_JAHvjLPgEeFG-288" edge="1">
                    <mxGeometry width="50" height="50" relative="1" as="geometry">
                        <mxPoint x="50" y="190" as="sourcePoint"/>
                        <mxPoint x="80" y="160" as="targetPoint"/>
                        <Array as="points"/>
                    </mxGeometry>
                </mxCell>
                <mxCell id="_0PlHYa_JAHvjLPgEeFG-305" value="" style="endArrow=none;html=1;rounded=0;fontColor=#000000;entryX=1;entryY=0.25;entryDx=0;entryDy=0;exitX=0;exitY=0.25;exitDx=0;exitDy=0;" parent="_0PlHYa_JAHvjLPgEeFG-307" edge="1">
                    <mxGeometry width="50" height="50" relative="1" as="geometry">
                        <mxPoint y="270" as="sourcePoint"/>
                        <mxPoint x="500" y="270" as="targetPoint"/>
                        <Array as="points"/>
                    </mxGeometry>
                </mxCell>
                <mxCell id="_0PlHYa_JAHvjLPgEeFG-306" value="Return//&lt;br&gt;EXPANDED&lt;br&gt;IMAGE" style="rounded=0;whiteSpace=wrap;html=1;shadow=1;glass=0;sketch=0;fontColor=#000000;strokeColor=default;fillColor=default;gradientColor=none;gradientDirection=north;" parent="_0PlHYa_JAHvjLPgEeFG-307" vertex="1">
                    <mxGeometry x="10" y="100" width="170" height="160" as="geometry"/>
                </mxCell>
                <mxCell id="_0PlHYa_JAHvjLPgEeFG-311" value="" style="shape=link;html=1;rounded=0;fontSize=22;fontColor=#000000;" parent="_0PlHYa_JAHvjLPgEeFG-307" edge="1">
                    <mxGeometry width="100" relative="1" as="geometry">
                        <mxPoint x="195" y="140" as="sourcePoint"/>
                        <mxPoint x="490" y="140" as="targetPoint"/>
                    </mxGeometry>
                </mxCell>
                <mxCell id="_0PlHYa_JAHvjLPgEeFG-315" style="edgeStyle=orthogonalEdgeStyle;rounded=0;orthogonalLoop=1;jettySize=auto;html=1;exitX=0.25;exitY=1;exitDx=0;exitDy=0;entryX=0.403;entryY=-0.001;entryDx=0;entryDy=0;entryPerimeter=0;fontSize=14;fontColor=#000000;" parent="_0PlHYa_JAHvjLPgEeFG-307" source="_0PlHYa_JAHvjLPgEeFG-293" target="_0PlHYa_JAHvjLPgEeFG-306" edge="1">
                    <mxGeometry relative="1" as="geometry"/>
                </mxCell>
                <mxCell id="_0PlHYa_JAHvjLPgEeFG-317" value="" style="html=1;shadow=0;dashed=0;align=center;verticalAlign=middle;shape=mxgraph.arrows2.arrow;dy=0.6;dx=40;notch=0;glass=0;sketch=0;fontSize=12;fontColor=#000000;strokeColor=default;fillColor=default;gradientColor=none;gradientDirection=north;" parent="_0PlHYa_JAHvjLPgEeFG-307" vertex="1">
                    <mxGeometry x="-30" y="110" width="90" height="70" as="geometry"/>
                </mxCell>
                <mxCell id="_0PlHYa_JAHvjLPgEeFG-402" value="ON SELECT" style="rounded=0;whiteSpace=wrap;html=1;shadow=0;glass=0;dashed=1;sketch=0;fontSize=12;fontColor=#000000;strokeColor=none;fillColor=default;gradientColor=none;gradientDirection=north;" parent="_0PlHYa_JAHvjLPgEeFG-307" vertex="1">
                    <mxGeometry x="-30" y="135" width="70" height="20" as="geometry"/>
                </mxCell>
                <mxCell id="_0PlHYa_JAHvjLPgEeFG-457" value="" style="group" parent="_0PlHYa_JAHvjLPgEeFG-307" vertex="1" connectable="0">
                    <mxGeometry x="195" y="90" width="295" height="170" as="geometry"/>
                </mxCell>
                <mxCell id="_0PlHYa_JAHvjLPgEeFG-310" value="" style="rounded=0;whiteSpace=wrap;html=1;shadow=1;glass=0;sketch=0;fontSize=22;fontColor=#000000;strokeColor=default;fillColor=default;gradientColor=none;gradientDirection=north;dashed=1;" parent="_0PlHYa_JAHvjLPgEeFG-457" vertex="1">
                    <mxGeometry width="295" height="170" as="geometry"/>
                </mxCell>
                <mxCell id="_0PlHYa_JAHvjLPgEeFG-312" value="Return//TITLE" style="rounded=0;whiteSpace=wrap;html=1;shadow=1;glass=0;dashed=1;sketch=0;fontSize=22;fontColor=#000000;strokeColor=default;fillColor=default;gradientColor=none;gradientDirection=north;" parent="_0PlHYa_JAHvjLPgEeFG-457" vertex="1">
                    <mxGeometry x="5" y="10" width="280" height="30" as="geometry"/>
                </mxCell>
                <mxCell id="_0PlHYa_JAHvjLPgEeFG-314" value="&lt;div style=&quot;text-align: justify&quot;&gt;&lt;span style=&quot;font-size: 14px&quot;&gt;return //Description:&lt;/span&gt;&lt;/div&gt;&lt;font&gt;&lt;div style=&quot;font-size: 14px ; text-align: justify&quot;&gt;&lt;span&gt;if keyword appears in description replace with hyperlink that initialize new query&amp;nbsp;&lt;/span&gt;&lt;/div&gt;&lt;div style=&quot;font-size: 14px ; text-align: justify&quot;&gt;&lt;span&gt;return// copyright if present&lt;/span&gt;&lt;/div&gt;&lt;div style=&quot;text-align: justify&quot;&gt;&lt;span style=&quot;font-size: 14px&quot;&gt;&lt;br&gt;&lt;/span&gt;&lt;/div&gt;&lt;/font&gt;" style="rounded=0;whiteSpace=wrap;html=1;shadow=1;glass=0;dashed=1;sketch=0;fontSize=22;fontColor=#000000;strokeColor=default;fillColor=default;gradientColor=none;gradientDirection=north;align=center;" parent="_0PlHYa_JAHvjLPgEeFG-457" vertex="1">
                    <mxGeometry x="12.5" y="60" width="270" height="90" as="geometry"/>
                </mxCell>
                <mxCell id="_0PlHYa_JAHvjLPgEeFG-463" value="" style="group" parent="_0PlHYa_JAHvjLPgEeFG-307" vertex="1" connectable="0">
                    <mxGeometry x="467.5" y="165" width="90" height="80" as="geometry"/>
                </mxCell>
                <mxCell id="_0PlHYa_JAHvjLPgEeFG-318" value="" style="html=1;shadow=0;dashed=0;align=center;verticalAlign=middle;shape=mxgraph.arrows2.arrow;dy=0.6;dx=40;notch=0;glass=0;sketch=0;fontSize=12;fontColor=#000000;strokeColor=default;fillColor=default;gradientColor=none;gradientDirection=north;direction=west;" parent="_0PlHYa_JAHvjLPgEeFG-463" vertex="1">
                    <mxGeometry width="90" height="80" as="geometry"/>
                </mxCell>
                <mxCell id="_0PlHYa_JAHvjLPgEeFG-369" value="ON SELECT" style="rounded=0;whiteSpace=wrap;html=1;shadow=0;glass=0;dashed=1;sketch=0;fontSize=12;fontColor=#000000;strokeColor=none;fillColor=default;gradientColor=none;gradientDirection=north;" parent="_0PlHYa_JAHvjLPgEeFG-463" vertex="1">
                    <mxGeometry x="10" y="30" width="70" height="20" as="geometry"/>
                </mxCell>
                <mxCell id="_0PlHYa_JAHvjLPgEeFG-308" style="edgeStyle=orthogonalEdgeStyle;rounded=0;orthogonalLoop=1;jettySize=auto;html=1;exitX=0;exitY=0.25;exitDx=0;exitDy=0;fontColor=#000000;" parent="1" source="_0PlHYa_JAHvjLPgEeFG-136" edge="1">
                    <mxGeometry relative="1" as="geometry">
                        <mxPoint x="200" y="340" as="targetPoint"/>
                        <Array as="points">
                            <mxPoint x="120" y="767"/>
                        </Array>
                    </mxGeometry>
                </mxCell>
                <mxCell id="_0PlHYa_JAHvjLPgEeFG-287" style="edgeStyle=orthogonalEdgeStyle;rounded=0;orthogonalLoop=1;jettySize=auto;html=1;exitX=1;exitY=0.5;exitDx=0;exitDy=0;fontColor=#000000;entryX=0;entryY=0;entryDx=30;entryDy=21;entryPerimeter=0;" parent="1" source="_0PlHYa_JAHvjLPgEeFG-286" target="_0PlHYa_JAHvjLPgEeFG-296" edge="1">
                    <mxGeometry relative="1" as="geometry">
                        <mxPoint x="2430" y="680" as="targetPoint"/>
                        <Array as="points">
                            <mxPoint x="2060" y="1045"/>
                            <mxPoint x="2060" y="660"/>
                            <mxPoint x="2495" y="660"/>
                        </Array>
                    </mxGeometry>
                </mxCell>
                <mxCell id="_0PlHYa_JAHvjLPgEeFG-372" value="" style="edgeStyle=orthogonalEdgeStyle;rounded=0;orthogonalLoop=1;jettySize=auto;html=1;fontSize=12;fontColor=#000000;exitX=0.551;exitY=1.006;exitDx=0;exitDy=0;exitPerimeter=0;entryX=0.339;entryY=1;entryDx=0;entryDy=0;entryPerimeter=0;" parent="1" source="_0PlHYa_JAHvjLPgEeFG-368" target="_0PlHYa_JAHvjLPgEeFG-137" edge="1">
                    <mxGeometry relative="1" as="geometry">
                        <mxPoint x="2957.000000000001" y="1268" as="sourcePoint"/>
                        <mxPoint x="1647" y="1536" as="targetPoint"/>
                        <Array as="points">
                            <mxPoint x="2957" y="1151"/>
                            <mxPoint x="2957" y="1590"/>
                            <mxPoint x="399" y="1590"/>
                            <mxPoint x="399" y="1370"/>
                        </Array>
                    </mxGeometry>
                </mxCell>
                <mxCell id="_0PlHYa_JAHvjLPgEeFG-368" value="If a hyperlink is selected request and generate the previous style keyword search with the new request" style="rounded=0;whiteSpace=wrap;html=1;shadow=1;glass=0;dashed=1;sketch=0;fontSize=12;fontColor=#000000;strokeColor=default;fillColor=default;gradientColor=none;gradientDirection=north;" parent="1" vertex="1">
                    <mxGeometry x="2800" y="1072" width="287" height="78" as="geometry"/>
                </mxCell>
                <mxCell id="_0PlHYa_JAHvjLPgEeFG-370" style="edgeStyle=orthogonalEdgeStyle;rounded=0;orthogonalLoop=1;jettySize=auto;html=1;exitX=0;exitY=0.5;exitDx=0;exitDy=0;exitPerimeter=0;entryX=0.582;entryY=-0.006;entryDx=0;entryDy=0;entryPerimeter=0;fontSize=12;fontColor=#000000;" parent="1" source="_0PlHYa_JAHvjLPgEeFG-318" edge="1">
                    <mxGeometry relative="1" as="geometry">
                        <mxPoint x="2673.5" y="902" as="sourcePoint"/>
                        <mxPoint x="2913.88" y="1075.8000000000002" as="targetPoint"/>
                    </mxGeometry>
                </mxCell>
                <mxCell id="_0PlHYa_JAHvjLPgEeFG-455" style="edgeStyle=orthogonalEdgeStyle;rounded=0;orthogonalLoop=1;jettySize=auto;html=1;exitX=0;exitY=0.25;exitDx=0;exitDy=0;entryX=-0.001;entryY=0.33;entryDx=0;entryDy=0;entryPerimeter=0;fontSize=12;fontColor=#000000;" parent="1" source="_0PlHYa_JAHvjLPgEeFG-402" target="_0PlHYa_JAHvjLPgEeFG-405" edge="1">
                    <mxGeometry relative="1" as="geometry"/>
                </mxCell>
                <mxCell id="_0PlHYa_JAHvjLPgEeFG-462" style="edgeStyle=orthogonalEdgeStyle;rounded=0;orthogonalLoop=1;jettySize=auto;html=1;exitX=0;exitY=0.5;exitDx=0;exitDy=0;entryX=0.144;entryY=1.006;entryDx=0;entryDy=0;entryPerimeter=0;fontSize=12;fontColor=#000000;exitPerimeter=0;" parent="1" source="_0PlHYa_JAHvjLPgEeFG-465" target="_0PlHYa_JAHvjLPgEeFG-368" edge="1">
                    <mxGeometry relative="1" as="geometry"/>
                </mxCell>
            </root>
        </mxGraphModel>
    </diagram>
</mxfile>